<svg id="Слой_1" xmlns="http://www.w3.org/2000/svg" viewBox="0 0 301.6 290"><style>.st0{fill:#de006b}.st1{fill:#231f20}.st2{fill:#30241c}.st3{fill:#fff}.st4{fill:#57cccc}.st5{stroke-dasharray:0,9.12}.st5,.st6{fill:none;stroke:#221e1f;stroke-width:3;stroke-linecap:round;stroke-linejoin:round}.st7{fill:#800aa8}</style><title>block1_2_center</title><g id="Слой_2"><g id="Layer_3"><path class="st0" d="M207.3 144.6c0 32.1-26.4 58.1-58.9 58.1s-58.9-26-58.9-58.1 26.4-58.1 58.9-58.1 58.9 26 58.9 58.1"/><path class="st1" d="M147.1 44.8h2.5v10h-2.5zM147.1 234.5h2.5v10h-2.5zM47.2 143.4h10.1v2.5H47.2zM239.4 143.4h10.1v2.5h-10.1zM213.6 82l-1.8-1.8 7.1-7 1.8 1.7zM77.7 216.1l-1.8-1.7 7.2-7.1 1.7 1.8zM83.1 82l-7.2-7.1 1.8-1.7 7.1 7zM218.9 216.1l-7.1-7 1.8-1.8 7.1 7.1zM196.1 193.1c-.3 0-.7-.1-.9-.4l-.2-.2c-.5-.5-.5-1.3 0-1.8s1.3-.5 1.8 0l.2.2c.5.5.5 1.3 0 1.8-.3.3-.6.4-.9.4M108.2 106.3c-.3 0-.7-.1-.9-.4l-.4-.4c-.5-.5-.5-1.3 0-1.8s1.3-.5 1.8 0l.4.4c.5.5.5 1.3 0 1.8-.3.3-.6.4-.9.4m7.3 7.3c-.3 0-.7-.1-.9-.4l-.4-.4c-.5-.5-.5-1.3 0-1.8s1.3-.5 1.8 0l.4.4c.5.5.5 1.3 0 1.8-.2.2-.5.4-.9.4m7.4 7.2c-.3 0-.7-.1-.9-.4l-.4-.4c-.5-.5-.5-1.3 0-1.8s1.3-.5 1.8 0l.4.4c.5.5.5 1.3 0 1.8-.3.3-.6.4-.9.4m7.3 7.3c-.3 0-.7-.1-.9-.4l-.4-.4c-.5-.5-.5-1.3 0-1.8s1.3-.5 1.8 0l.4.4c.5.5.5 1.3 0 1.8-.2.2-.5.4-.9.4m7.4 7.2c-.3 0-.7-.1-.9-.4l-.4-.4c-.5-.5-.5-1.3 0-1.8s1.3-.5 1.8 0l.4.4c.5.5.5 1.3 0 1.8-.3.3-.6.4-.9.4m7.3 7.3c-.3 0-.7-.1-.9-.4l-.4-.4c-.5-.5-.5-1.3 0-1.8s1.3-.5 1.8 0l.4.4c.5.5.5 1.3 0 1.8-.2.2-.5.4-.9.4m7.4 7.2c-.3 0-.7-.1-.9-.4l-.4-.4c-.5-.5-.5-1.3 0-1.8s1.3-.5 1.8 0l.4.4c.5.5.5 1.3 0 1.8-.3.3-.6.4-.9.4m7.3 7.3c-.3 0-.7-.1-.9-.4l-.4-.4c-.5-.5-.5-1.3 0-1.8s1.3-.5 1.8 0l.4.4c.5.5.5 1.3 0 1.8-.2.2-.5.4-.9.4m7.4 7.2c-.3 0-.7-.1-.9-.4l-.4-.4c-.5-.5-.5-1.3 0-1.8s1.3-.5 1.8 0l.4.4c.5.5.5 1.3 0 1.8-.3.3-.6.4-.9.4m7.3 7.3c-.3 0-.7-.1-.9-.4l-.4-.4c-.5-.5-.5-1.3 0-1.8s1.3-.5 1.8 0l.4.4c.5.5.5 1.3 0 1.8-.2.2-.5.4-.9.4m7.4 7.2c-.3 0-.7-.1-.9-.4l-.4-.4c-.5-.5-.5-1.3 0-1.8s1.3-.5 1.8 0l.4.4c.5.5.5 1.3 0 1.8-.3.3-.6.4-.9.4m7.3 7.3c-.3 0-.7-.1-.9-.4l-.4-.4c-.5-.5-.5-1.3 0-1.8s1.3-.5 1.8 0l.4.4c.5.5.5 1.3 0 1.8-.2.3-.5.4-.9.4M100.8 99.1c-.3 0-.7-.1-.9-.4l-.2-.2c-.5-.5-.5-1.3 0-1.8s1.3-.5 1.8 0l.2.2c.5.5.5 1.3 0 1.8-.2.2-.5.4-.9.4"/><path class="st2" d="M195.8 99.1c-.3 0-.7-.1-.9-.4-.5-.5-.5-1.3 0-1.8l.2-.2c.5-.5 1.3-.5 1.8 0s.5 1.3 0 1.8l-.2.2c-.2.3-.5.4-.9.4"/><path class="st1" d="M188.5 106.3c-.3 0-.7-.1-.9-.4-.5-.5-.5-1.3 0-1.8l.4-.4c.5-.5 1.3-.5 1.8 0s.5 1.3 0 1.8l-.4.4c-.2.3-.6.4-.9.4m-7.3 7.3c-.3 0-.7-.1-.9-.4-.5-.5-.5-1.3 0-1.8l.4-.4c.5-.5 1.3-.5 1.8 0s.5 1.3 0 1.8l-.4.4c-.3.2-.6.3-.9.4m-7.4 7.2c-.3 0-.7-.1-.9-.4-.5-.5-.5-1.3 0-1.8l.4-.4c.5-.5 1.3-.5 1.8 0s.5 1.3 0 1.8l-.4.4c-.2.2-.5.4-.9.4m-7.3 7.2c-.3 0-.7-.1-.9-.4-.5-.5-.5-1.3 0-1.8l.4-.4c.5-.5 1.3-.5 1.8 0s.5 1.3 0 1.8l-.4.4c-.3.3-.6.4-.9.4m-7.3 7.3c-.3 0-.7-.1-.9-.4-.5-.5-.5-1.3 0-1.8l.4-.4c.5-.5 1.3-.5 1.8 0s.5 1.3 0 1.8l-.5.5c-.2.2-.6.4-.8.3m-7.4 7.3c-.3 0-.7-.1-.9-.4-.5-.5-.5-1.3 0-1.8l.4-.4c.5-.5 1.3-.5 1.8 0s.5 1.3 0 1.8l-.4.4c-.3.3-.6.4-.9.4m-7.4 7.3c-.3 0-.7-.1-.9-.4-.5-.5-.5-1.3 0-1.8l.4-.4c.5-.5 1.3-.5 1.8 0s.5 1.3 0 1.8l-.4.4c-.2.2-.5.4-.9.4m-7.3 7.2c-.3 0-.7-.1-.9-.4-.5-.5-.5-1.3 0-1.8l.4-.4c.5-.5 1.3-.5 1.8 0s.5 1.3 0 1.8l-.4.4c-.2.3-.5.4-.9.4m-7.3 7.2c-.3 0-.7-.1-.9-.4-.5-.5-.5-1.3 0-1.8l.4-.4c.5-.5 1.3-.5 1.8 0s.5 1.3 0 1.8l-.4.4c-.3.3-.6.4-.9.4m-7.4 7.3c-.3 0-.7-.1-.9-.4-.5-.5-.5-1.3 0-1.8l.4-.5c.5-.5 1.3-.5 1.8 0s.5 1.3 0 1.8l-.4.4c-.2.3-.5.5-.9.5m-7.3 7.2c-.3 0-.7-.1-.9-.4-.5-.5-.5-1.3 0-1.8l.4-.4c.5-.5 1.3-.5 1.8 0s.5 1.3 0 1.8l-.4.4c-.2.3-.5.4-.9.4m-7.4 7.2c-.3 0-.7-.1-.9-.4-.5-.5-.5-1.3 0-1.8l.4-.4c.5-.5 1.3-.5 1.8 0s.5 1.3 0 1.8l-.4.4c-.2.3-.5.4-.9.4M100.6 193.1c-.3 0-.7-.1-.9-.4-.5-.5-.5-1.3 0-1.8l.2-.2c.5-.5 1.3-.5 1.8 0s.5 1.3 0 1.8l-.2.2c-.2.3-.6.4-.9.4"/><path class="st3" d="M198 144.6s-22.2 24.5-49.6 24.5-49.6-24.5-49.6-24.5 22.2-24.5 49.6-24.5 49.6 24.5 49.6 24.5"/><path class="st4" d="M159.1 144.6c.1 5.9-4.7 10.8-10.6 10.8-5.9.1-10.8-4.7-10.8-10.6s4.7-10.8 10.6-10.8h.1c5.9 0 10.7 4.7 10.7 10.6"/><path class="st2" d="M148.4 128.2c-9.1.1-16.3 7.6-16.2 16.6.1 9.1 7.6 16.3 16.6 16.2 9-.1 16.2-7.4 16.2-16.4 0-9.1-7.5-16.4-16.6-16.4m0 35.4c-10.5-.1-18.8-8.7-18.7-19.2.1-10.5 8.7-18.8 19.2-18.7 10.4.1 18.7 8.6 18.7 18.9-.1 10.6-8.7 19-19.2 19"/><path class="st2" d="M152.7 144.6c0 2.4-1.9 4.3-4.2 4.3-2.4 0-4.3-1.9-4.3-4.2 0-2.4 1.9-4.3 4.2-4.3h.1c2.2 0 4.2 1.9 4.2 4.2"/><path class="st5" d="M158.7 260.7c58.6-4.6 104.6-52.4 106.9-111.2l-.3-13.7C260.7 77.2 213 31.3 154.2 29l-13.7.3C81.9 33.9 36 81.7 33.6 140.4l.3 13.7c4.6 58.7 52.4 104.6 111.2 106.9l13.6-.3z"/><path class="st6" d="M265.7 145.00000000000003"/><path class="st3" d="M148.4 15.3c6 0 10.4-6.9 5.6-13.3-6.3-4.8-13.3-.4-13.3 5.6.1 4.3 3.5 7.7 7.7 7.7"/><path class="st7" d="M148.4 290c6 0 10.4-6.9 5.6-13.3-6.3-4.8-13.3-.4-13.3 5.6.1 4.3 3.5 7.7 7.7 7.7M294 152.6c6 0 10.4-6.9 5.6-13.3-6.3-4.8-13.3-.4-13.3 5.6 0 4.3 3.5 7.7 7.7 7.7M7.7 152.3c6 0 10.4-6.9 5.6-13.3-6.4-4.8-13.3-.4-13.3 5.6 0 4.3 3.4 7.7 7.7 7.7"/></g></g></svg>