<svg xmlns="http://www.w3.org/2000/svg" viewBox="0 0 255.15 228.01"><defs><style>.cls-1,.cls-10,.cls-12,.cls-9{fill:none}.cls-2{clip-path:url(#clip-path)}.cls-3{fill:#de006b}.cls-4{fill:#141414}.cls-5{fill:#57cccc}.cls-6{fill:#241f21}.cls-7{fill:#fff}.cls-8{clip-path:url(#clip-path-3)}.cls-10,.cls-9{stroke:#141414;stroke-linecap:round;stroke-miterlimit:10;stroke-width:2.17px}.cls-9{stroke-dasharray:2.02 12.02}.cls-11{fill:#800aa8}.cls-12{stroke:#800aa8;stroke-width:1.08px}</style><clipPath id="clip-path"><path class="cls-1" d="M0 0h255.15v228.01H0z"/></clipPath><clipPath id="clip-path-3"><path class="cls-1" d="M87.46 144.33a25.9 25.9 0 1 0 25.91-25.9 25.91 25.91 0 0 0-25.9 25.91"/></clipPath></defs><title>block1_8</title><g id="Слой_2" data-name="Слой 2"><g id="Layer_3" data-name="Layer 3"><g class="cls-2"><path class="cls-3" d="M113.36 212.27a67.94 67.94 0 1 1 67.94-67.94 67.94 67.94 0 0 1-67.94 67.94m0-151.62A83.68 83.68 0 1 0 197 144.33a83.68 83.68 0 0 0-83.68-83.68"/><path class="cls-4" d="M157 14.47a20.58 20.58 0 1 0 20.58 20.58A20.6 20.6 0 0 0 157 14.47m0 43.33a22.75 22.75 0 1 1 22.75-22.75A22.77 22.77 0 0 1 157 57.8"/></g><path class="cls-4" transform="rotate(-65.91 136.436 77.923)" d="M110.53 76.84h51.83v2.17h-51.83z"/><path class="cls-4" transform="rotate(-24.38 61.198 175.822)" d="M35.29 174.75h51.83v2.17H35.29z"/><path class="cls-4" d="M99.33 123.83l-1.66 1.39-59.78-75.29 1.66-1.4 59.78 75.3z"/><path class="cls-4" transform="rotate(-49.65 201.46 71.072)" d="M200.39 35.51h2.17v71.11h-2.17z"/><path class="cls-5" d="M229.84 101.89h18.27v4.74h-18.27z"/><path class="cls-5" d="M236.61 95.13h4.74v18.27h-4.74z"/><g class="cls-2"><path class="cls-6" d="M254.07 104.26H253a14 14 0 1 1-4.1-9.9 14 14 0 0 1 4.1 9.9h2.17A16.17 16.17 0 1 0 239 120.43a16.17 16.17 0 0 0 16.17-16.17z"/><path class="cls-5" d="M113.36 205.14a60.81 60.81 0 1 1 60.8-60.81 60.87 60.87 0 0 1-60.8 60.81"/><path class="cls-7" d="M139.27 144.33a25.91 25.91 0 1 0-25.9 25.91 25.9 25.9 0 0 0 25.9-25.9"/></g><g class="cls-8"><path class="cls-3" d="M110.45 158.54l2.91 11.7H98.24l.3-9.27 8.72-4.32 3.19 1.89z"/><path class="cls-4" d="M105.33 137h.74c2 0 6.92-.25 9.81-2.51l1-3.33c0-.23-.55-.94-2.46-1.63a5.3 5.3 0 0 0-1.82-.3 8.35 8.35 0 0 0-6.51 3.31 5.29 5.29 0 0 0-.81 4.45m.74 2.18c-1 0-1.61-.05-1.64-.05a1.08 1.08 0 0 1-.93-.71 7.55 7.55 0 0 1 .86-7.11 10.49 10.49 0 0 1 8.28-4.23 7.46 7.46 0 0 1 2.56.43c4.56 1.66 3.89 4 3.8 4.27l-1.15 3.69a1.09 1.09 0 0 1-.33.5c-3.28 2.8-8.59 3.22-11.45 3.22"/><path class="cls-4" d="M118 135a5.16 5.16 0 0 0 3.27 2 4.53 4.53 0 0 0-.55-2.94 3.35 3.35 0 0 0-2-1.32zm3.74 4.15a7.33 7.33 0 0 1-5.86-3.39 1.09 1.09 0 0 1-.11-.89l1.17-3.75a1.09 1.09 0 0 1 1.17-.75 5.87 5.87 0 0 1 4.43 2.45 7.35 7.35 0 0 1 .68 5.52 1.08 1.08 0 0 1-1 .78h-.52"/><path class="cls-4" d="M113.36 153.25h-.23c-.28-.06-6.94-1.53-8.26-6.13a45.5 45.5 0 0 1-1.44-8.95 1.08 1.08 0 0 1 2.17-.11 44.09 44.09 0 0 0 1.4 8.44c.85 3 5.34 4.28 6.4 4.55 1.06-.27 5.55-1.59 6.4-4.55a43.89 43.89 0 0 0 1.36-8.46 1.08 1.08 0 1 1 2.17.11 45.57 45.57 0 0 1-1.44 8.95c-1.32 4.6-8 6.07-8.26 6.13h-.23"/><path class="cls-4" d="M105.41 145.86a1.08 1.08 0 0 1-.52-.14c-1.72-.95-4.34-3.24-3.29-5.8a2.63 2.63 0 0 1 3.29-1.78l-.75 2c-.27-.07-.46.26-.58.55-.5 1.21 1.71 2.73 2.33 3.07a1.08 1.08 0 0 1-.53 2M121.34 145.86a1.08 1.08 0 0 1-.53-2c.62-.34 2.83-1.88 2.33-3.07-.26-.64-.53-.57-.54-.57a1.08 1.08 0 0 1-.75-2 2.63 2.63 0 0 1 3.29 1.78c1.05 2.56-1.57 4.85-3.29 5.8a1.08 1.08 0 0 1-.52.14M112.08 160.59a1.08 1.08 0 0 1-.55-.15l-5.45-3.23a1.08 1.08 0 1 1 1.1-1.87l4.39 2.6.34-.79-3.69-1.36a1.08 1.08 0 0 1-.71-1.08l.25-4.46a1.08 1.08 0 0 1 2.16.12l-.2 3.66 4 1.48a1.08 1.08 0 0 1 .62 1.44l-1.28 3a1.09 1.09 0 0 1-.66.6 1.1 1.1 0 0 1-.34.05"/><path class="cls-3" d="M116.27 158.54l-2.91 11.7h15.12l-.3-9.27-8.72-4.32-3.19 1.89z"/><path class="cls-4" d="M114.64 160.59a1.11 1.11 0 0 1-.34-.05 1.09 1.09 0 0 1-.66-.6l-1.28-3a1.08 1.08 0 0 1 .62-1.44l4-1.48-.2-3.66a1.08 1.08 0 0 1 2.17-.12l.24 4.46a1.09 1.09 0 0 1-.71 1.08l-3.69 1.36.34.79 4.39-2.6a1.08 1.08 0 0 1 1.11 1.86l-5.45 3.23a1.08 1.08 0 0 1-.55.15"/></g><g class="cls-2"><path class="cls-4" d="M113.36 119.51a24.82 24.82 0 1 0 24.82 24.82 24.85 24.85 0 0 0-24.82-24.82m0 51.81a27 27 0 1 1 27-27 27 27 0 0 1-27 27M26.9 2.17A24.73 24.73 0 1 0 51.63 26.9 24.76 24.76 0 0 0 26.9 2.17m0 51.63a26.9 26.9 0 1 1 26.9-26.9 26.93 26.93 0 0 1-26.9 26.9"/></g><path class="cls-3" d="M12.3 34.38h29.21V17.32H12.3zm31.38 2.17H10.13v-21.4h33.54z"/><path class="cls-3" d="M12.3 34.38h29.21v-2.64H12.3zm31.38 2.17H10.13v-7h33.54z"/><path class="cls-3" d="M22.66 39.54h9.52l-1.29-3H24zm12.81 2.17h-16.1l3.16-7.33h9.79z"/><g class="cls-2"><path class="cls-4" d="M22 176.39a16.24 16.24 0 1 0 16.24 16.24A16.26 16.26 0 0 0 22 176.39M22 211a18.41 18.41 0 1 1 18.4-18.37A18.43 18.43 0 0 1 22 211"/><path class="cls-9" d="M156.22 157.25a44.81 44.81 0 0 1-35.8 31.28M100.44 187.19a44.81 44.81 0 0 1-31.28-35.8M70.5 131.42a44.81 44.81 0 0 1 35.8-31.28M126.28 101.47a44.81 44.81 0 0 1 31.28 35.8"/><path class="cls-10" d="M158.1 143.25v2.16m-45.82-45.82h2.17m-45.83 45.83v-1.08-1.08m45.82 45.82h-2.17"/><path class="cls-11" d="M25.66 196c0 1.69.61 3 1.73 3s1.71-1.26 1.71-3-.47-3-1.73-3c-1.1 0-1.71 1.32-1.71 3m4.83-.12c0 2.78-1.44 4.16-3.15 4.16s-3.07-1.32-3.09-4 1.42-4.12 3.21-4.12 3 1.42 3 3.94m-13 4.27l7.78-13.69h1.14l-7.78 13.69zm-2.63-9.63c0 1.69.61 3 1.73 3s1.71-1.26 1.71-3-.47-2.95-1.73-2.95c-1.1 0-1.71 1.32-1.71 3m4.84-.12c0 2.78-1.44 4.16-3.15 4.16s-3.07-1.32-3.09-4 1.42-4.12 3.21-4.12 3 1.42 3 3.92"/><path class="cls-12" d="M25.66 196c0 1.69.61 3 1.73 3s1.71-1.26 1.71-3-.47-3-1.73-3c-1.1 0-1.71 1.32-1.71 3zm4.83-.12c0 2.78-1.44 4.16-3.15 4.16s-3.07-1.32-3.09-4 1.42-4.12 3.21-4.12 3.04 1.42 3.04 3.94zm-13 4.27l7.78-13.69h1.14l-7.78 13.69zm-2.63-9.63c0 1.69.61 3 1.73 3s1.71-1.26 1.71-3-.47-2.95-1.73-2.95c-1.08-.04-1.69 1.28-1.69 2.93zm4.84-.12c0 2.78-1.44 4.16-3.15 4.16s-3.07-1.32-3.09-4 1.42-4.12 3.21-4.12 3.05 1.44 3.05 3.94z"/></g><path class="cls-11" d="M148.43 24.21h17.21v2.17h-17.21zM148.43 30.72h17.21v2.17h-17.21zM148.43 37.22h17.21v2.17h-17.21zM152.77 43.73h8.54v2.17h-8.54z"/></g></g></svg>