<svg xmlns="http://www.w3.org/2000/svg" viewBox="0 0 180.94 156.19"><defs><style>.cls-1,.cls-8,.cls-9{fill:none}.cls-2{clip-path:url(#clip-path)}.cls-3{fill:#de006b}.cls-4{fill:#bac4c7}.cls-5{fill:#d9d9d9}.cls-6{fill:#fff}.cls-7{fill:#57cccc}.cls-8,.cls-9{stroke:#141414;stroke-linecap:round;stroke-miterlimit:10;stroke-width:4px}.cls-8{stroke-dasharray:1.1 11.21}.cls-10{fill:#141414}</style><clipPath id="clip-path"><path class="cls-1" d="M0 0h180.94v156.19H0z"/></clipPath></defs><title>block1_4</title><g id="Слой_2" data-name="Слой 2"><g id="Layer_3" data-name="Layer 3"><g class="cls-2"><path class="cls-3" d="M164.62 78.1A78.1 78.1 0 1 1 86.52 0a78.1 78.1 0 0 1 78.1 78.1"/><path class="cls-4" d="M7.54 124.14V30.79a7.53 7.53 0 0 1 7.54-7.52H157a7.53 7.53 0 0 1 7.54 7.52v93.35z"/><path class="cls-5" d="M172 124.14v4.2a7.53 7.53 0 0 1-7.54 7.52H7.54A7.53 7.53 0 0 1 0 128.33v-4.2z"/></g><path class="cls-6" d="M15.08 30.8h140.64v85.8H15.08z"/><g class="cls-2"><path class="cls-7" d="M114.3 73.7a28.91 28.91 0 1 1-28.9-28.9 28.91 28.91 0 0 1 28.9 28.9"/><path class="cls-8" d="M116 86.56A33.25 33.25 0 0 1 92.93 106M72.53 104.3a33.25 33.25 0 0 1-19.46-23.06M54.8 60.84a33.25 33.25 0 0 1 23.06-19.46M98.26 43.1a33.25 33.25 0 0 1 19.46 23.06"/><path class="cls-9" d="M118.52 71.7q.06 1 .06 2t-.06 2M83.4 40.58q1-.06 2-.06t2 .06M52.27 75.7q-.06-1-.06-2t.06-2m35.12 35.12q-1 .06-2 .06t-2-.06"/></g><path class="cls-10" d="M102.85 89.4H70.2V78.1h2.51v8.79h27.63V78.1h2.51v11.3z"/><path class="cls-10" d="M86.52 79.87L75.59 68.94l1.78-1.78 9.15 9.16 9.16-9.16 1.78 1.78-10.94 10.93z"/><path class="cls-10" d="M85.27 54.66h2.51V78.1h-2.51z"/><g class="cls-2"><path class="cls-10" d="M164.62 17a13.81 13.81 0 1 0 13.81 13.8A13.83 13.83 0 0 0 164.62 17m0 30.14a16.32 16.32 0 1 1 16.32-16.34 16.34 16.34 0 0 1-16.32 16.32M33.76 127.07a8.79 8.79 0 1 0 8.79 8.79 8.8 8.8 0 0 0-8.79-8.79m0 20.09a11.3 11.3 0 1 1 11.3-11.3 11.31 11.31 0 0 1-11.3 11.3"/></g></g></g></svg>