<svg xmlns="http://www.w3.org/2000/svg" viewBox="0 0 233.34 219.8"><defs><style>.cls-1{fill:none}.cls-2{clip-path:url(#clip-path)}.cls-3{fill:#d4dbde}.cls-4{clip-path:url(#clip-path-2)}.cls-5{fill:#57cccc}.cls-6{fill:#de006b}.cls-7{fill:#fff}</style><clipPath id="clip-path"><path class="cls-1" d="M10.79 0h211.69v219.8H10.79z"/></clipPath><clipPath id="clip-path-2"><path class="cls-1" d="M11.57 111.29A104.82 104.82 0 1 0 116.39 6.47 104.78 104.78 0 0 0 11.57 111.29"/></clipPath></defs><title>block2_6</title><g id="Слой_2" data-name="Слой 2"><g id="Layer_3" data-name="Layer 3"><path class="cls-2 cls-3" d="M192.34 101.66q2.2 2.3 4.26 4.72-2.06-2.43-4.26-4.72M178 89.14q2.54 1.86 5 3.86-2.46-2-5-3.88m-92.65-15q2.7-.85 5.46-1.55-2.76.7-5.46 1.55m-13.14 5.11Q74.75 78 77.35 77q-2.6 1.05-5.13 2.24m-7.42 3.85q2.42-1.38 4.91-2.63-2.49 1.25-4.91 2.63m51.87-76.62a104.89 104.89 0 1 0 104.82 104.82A104.82 104.82 0 0 0 116.67 6.47"/><g class="cls-4"><path class="cls-5" d="M7.73 136.9c-.25-.36-1-.68-.4-1.4a2 2 0 0 1 2.59-.5c1.52 1.09 1.89.23 3.07-.72 2.19-1.77 1.31-2.85.41-4.76a30.16 30.16 0 0 0-2.76-4.74 1.47 1.47 0 0 1-.1-1.7 1.88 1.88 0 0 0 .09-1.93 1.5 1.5 0 0 1 .33-2c1.42-1.44.69-2.41-.77-3.1-.93-.44-2-1-1.17-2 .69-.83.93-3.17 3-1.73.84.58 1.14.12 1.12-.62a6.38 6.38 0 0 1 2.08-5.41 1.22 1.22 0 0 0 .25-1.65c-2.32-3.85-.91-5.28 1.74-8.07a9.72 9.72 0 0 1 5.44-3.23c.19 0 .42-.27.55-.22 2.08.9 2.47.2 2-1.82-.17-.66.77-.55 1.27-.56h6.26c.75 0 1.85-.06 1.86-.83 0-2.58 2.66-3.5 3.33-5.61a2.47 2.47 0 0 1 1.41-1.36A8.14 8.14 0 0 0 41.94 80c1.36-1.93 3.47-3.16 4.88-5.26 1.18-1.74 3.81-.74 5.78 0 .64.25 1.2 1 .91 1.38-1.09 1.56.24 2.51.8 3.54 1.38 2.53 1 5.35 1.52 8a3.2 3.2 0 0 1-2.72 3.66c-2.23.43-3.84-.29-4.71-2.06-.68-1.36-1.4-2.72-2.17-4.26a4 4 0 0 1-1.66 3.36c-1.27.89-1.85 3.78-1.27 5.17.16.38.46.74.91.65s.43-.54.38-1a5.16 5.16 0 0 1 0-1.59 1.21 1.21 0 0 1 1.08-1.05c.72-.06.85.5 1 1.06a6 6 0 0 0 .4 1.55c.23.46.59 1.07 1 1.18.67.18.78-.58.94-1.06a1.27 1.27 0 0 1 1.36-1c1.82 0 3.71-.62 5.3 1 .72.73 1.51.1 1.62-.71.26-1.89 2.43-2.75 2.43-4.77 0-.42.65-.59 1-.28 1.05 1 2.26 2 1.9 3.76-.16.76-.44 1.49-1.5 1-.52-.23-1.08-.38-1.36.31a1.38 1.38 0 0 0 .24 1.61 1 1 0 0 0 1.44.19c2.88-1.83 6-.31 9.07-.65 1.4-.16.91 1.21-.12 2.47 2.56-1.16 4.26.92 6.3.3.1 0 .24.13.36.14.58 0 .12 1.56 1.12.87.8-.55.59-1.44.31-2.22-.15-.44-.46-.83-.62-1.27-.3-.78-.25-1.5.69-1.79s1 .43 1.16 1a3.69 3.69 0 0 0 1.67 2.13c2.42 1.83 4.07 4.37 5.75 7 .16-.4.39-.71.32-.87a9 9 0 0 1 0-7c.15-.42 0-1.14.41-1.28 2.8-1 3.17-4.2 5.21-5.9.46-.38.74-1.06 1.45-.78s.6.89.73 1.5c.26 1.29 1.11 2.38.71 3.9-.18.68.77.45 1.16.11s.34-1.12.34-1.72-.64-1.13.17-1.35c.64-.17.87.63 1.05 1a11.41 11.41 0 0 1 .44 2.44c1.47-2.59 2.77-.36 4.21 0a20.91 20.91 0 0 0 .32-2.26c.07-2.07.61-2.57 2.69-2.23a4.48 4.48 0 0 0 2.19.07c.43-.14 1.1-.33.92-.88-1-3 1.43-3.89 3.16-4.89a36.2 36.2 0 0 1 5-2.87 3.46 3.46 0 0 1 1.14-.36 3.51 3.51 0 0 0 3.45-2.67 4.81 4.81 0 0 1 1.25-2.7c1.19-1.16 2.25-1 3 .47a2.16 2.16 0 0 0 2.64 1.15c3.65-.61 6.24 2 5.51 5.52-.13.65-.35 1.2.61 1.29a.65.65 0 0 1 .61.69c0 2.4 1.09 1.71 2.52 1 1.08-.5 2.33-1.21 3.69.09.51.48 2 .13 3-.46s.39-1.24.25-1.92c-.23-1.14.1-1.87 1.45-1.71A3.45 3.45 0 0 0 148 80c2.84-.69 4.59.17 5.61 2.88a2.49 2.49 0 0 0 .81 1.35c.65.43 1.2 1.33 2.09.91 1.11-.53.31-1.42.11-2.11-.35-1.23 0-1.76 1.25-1.39 1 .3 1.44 0 1.81-1 .47-1.17 1.93-1.37 2.64-2.4.39-.57.53-.75-.14-1.2a2.54 2.54 0 0 1 .19-4.27c1.49-.94 2.67-2.49 4.78-2 .36.09.36-.65.59-1 .78-1.08 1.79-1.68 3.11-1a3.69 3.69 0 0 0 1.89.24c2.16 0 3-1.12 3.81-3 1.19-3 3-3.46 6.07-2.2a1.38 1.38 0 0 0 1.95-.87 19.51 19.51 0 0 1 2.72-4.59c.54-.63.13-1.29 0-1.93a1.35 1.35 0 0 1 .72-1.69c.65-.27.87.31 1.18.77.56.83.6.8 2.29-.29-.48-.87-1.41-.59-2.1-.87-.87-.34-1.85-.92-1.07-1.89 1.8-2.25 2.37-5.32 4.81-7.13 2.85-2.11 5.58-4.38 8.59-6.27 1-.63 2 0 3.27-.12-1.07-.22-1.34-.66-1.17-1.49.3-1.5 2.71-4.11 4.16-4.34 1-.17 1.26.75 1.53 1.33a5.11 5.11 0 0 0 3.15 3 1.44 1.44 0 0 1 .25 2.57c-1.28.85-1.8 2.86-3.82 2.6a.55.55 0 0 0-.6.66c.26 1.83-.86 2.37-2.5 2.52 2.58.86 3.75 2.52 3.52 5.11 1.79-.87 3.7-.42 5.53-.74 1.49-.26 2.16 1.47 1.17 2.77a2.57 2.57 0 0 0-.64 2.22c.81 3.93 1.51 7.89 3.38 11.51.38.73.16 1.27-.58 1.35-2.45.25-2.63 2.37-2.23 3.71.51 1.75-.34 2.88-.88 4.12-.45 1-.51 1.72.28 2.5a5.2 5.2 0 0 1 1.34 2c.45 1.29 1 2.44 2.42.77.5-.58 1.09-.12 1.33.33a2.92 2.92 0 0 0 2.9 1.74 1 1 0 0 1 1.06 1.52c-.81 1.93.49 2.39 1.84 2.77 2 .56 2.06.78 1.09 2.65-.78 1.51-.13 2.62 1.25 3.3 1 .48 1.4.9.67 2a1.47 1.47 0 0 0 .46 2.14c1.57 1.11 2 2.72 2.29 4.52a13.11 13.11 0 0 0 .94 4.31 1.28 1.28 0 0 1-.74 2c-.94.16-1-.9-.89-1.47.45-2.54-1.19-3.26-3.09-4.07-2.95-1.26-5.49-3.31-8.59-4.34-1.93-.64-3.14-2.38-4-4.06-1.08-2-2.22-3.89-1.92-6.61s-1.67-5.15-2.53-7.76a5.9 5.9 0 0 1-.58-3.09c.14-.73-.07-1.75-.9-1.77s-.87 1-.82 1.74c.06.87.32 1.72.34 2.59 0 1.46-.83 1.92-2.08 1.22-.53-.29-.75-1.51-1.72-.55s-1.66 2-1.25 3.2a32.4 32.4 0 0 1 1.17 4.88c.15.93.38 2.16 2 1.86 1-.19 1.06.62.66 1.32a25.45 25.45 0 0 0-1.55 3c-.46 1.14-.78 2.66-2.81 1.34-.86-.56-2.31.52-2.41 1.75-.19 2.5-2.05 3.73-3.62 5.09-1.88 1.62-3.19 3.06-3.31 5.93-.23 5.07 1 10.21-.62 15.22-.37 1.15.18 1.33 1.14.88 1.57-.73 3.09-.89 4.55.46.13-.28.33-.52.32-.75-.11-2.61.73-3.34 3.44-2.93.95.14 1.89.43 2.39-.79.28-.68.77-1.32-.27-1.84-.52-.26-.82-.8-.34-1.33a.86.86 0 0 1 1.27.09c1.37 1.45 3.16 2.33 4.55 3.86 1.75 1.92 4.32 3.09 6.55 4.58 1.11.74 3 1.19.75 2.89-.66.5.93 3.88 2.09 4.35a8.68 8.68 0 0 0 3.22 1.11 1.3 1.3 0 0 1 1.41 1.19c.05.83-.73.61-1.2.71-.91.18-.84.68-.53 1.33.23.48.55 1 0 1.45s-1-.28-1.49-.61a12 12 0 0 1-1.73-2.21c-2.72-3.21-5.47-6.39-8.22-9.57a4.15 4.15 0 0 0-2.41-1.15 5.26 5.26 0 0 0 1.4 4c.51.62 1 1.26 1.51 1.89a10.76 10.76 0 0 1 2.77 7.71c-.1 1.55.59 3.15.85 4.74.68 4.28 0 8.58-.12 12.85a4.69 4.69 0 0 1-4 4.69 2.1 2.1 0 0 0-2.07 2c-.11.64-.21 1.72-1.26 1.48s-.6-1.15-.37-1.82c.69-2-1.14-2.88-2-4.11-1.15-1.69-1-3.6 1-4.44 1-.42 1.1-.78 1-1.76a19.13 19.13 0 0 0-1.43-5.22c-.21-.5-.52-.92-.36-1.51a1.3 1.3 0 0 0-.83-1.65c-.88-.3-1.1.64-1.36 1.17-.77 1.53-1.27 3.16-3 4-1.07.54-2 .47-2.5-.31-1.53-2.53-3.86-2-5.88-1.44a3.69 3.69 0 0 1-4.23-1.12 55.42 55.42 0 0 0-5.77-5c-1.18-.94-5.81-.51-7.32.59-.6.43-1.17.9-1.75 1.37-1 .82-1.62 1.63-.23 2.72a2.68 2.68 0 0 1 .81 2.75c-.26 1.69-.75 3.33 0 5.13.55 1.35-2 4-3.84 3.82s-3.58 1.07-5.53.57c-.79-.2-1.37.74-1.81 1.42a10.12 10.12 0 0 1-8.69 4.87 5.39 5.39 0 0 1-3-.91 7 7 0 0 0-6.36-.33c-3.46 1.45-4.17 1.34-6.54-1.41a2 2 0 0 0-1.73-.88 9.87 9.87 0 0 1-3.15-.48c-2.19-.48-3.49.93-2.89 3.08.84 3-.32 4.34-3.44 4.13a10.84 10.84 0 0 1-5.24-1.7c-2.33-1.45-4.9-.63-6.91 1.07a21 21 0 0 1-5.62 3c-.35.15-.9.3-1.14.13-2.31-1.61-5.79-1.43-7.07-4.68a2.22 2.22 0 0 0-2.86-1.24 3.05 3.05 0 0 1-3.12-.92c-.34-.39-.6-.59-1.17-.29-1.08.58-1.68-.1-1.94-1-.5-1.82-1.41-3.48-1.75-5.36s-1.84-3.38-3.21-4.77c-.6-.6-1.26-.21-1.87.07a4.6 4.6 0 0 1-3.12.47c-.38-.1-1-.06-.92-.55.29-2-1.67-1.81-2.54-2.61-.57-.53-1.1-.73-1-1.66.25-1.83-1.7-3.66-3.47-3-2.62 1-5.21.22-7.75.14a16.34 16.34 0 0 1-5.92-.91c-1.25-.52-1.11.65-.82 1.28.68 1.47.58 2.09-1.24 1.61-1.55-.41-1.21 1.9-2.62 2-.27 0 .27.76.48 1.14.43.76 1 1.49.28 2.38a2.25 2.25 0 0 1-2.43.53c-1.82-.39-3.41-.88-4.38-2.94a4.05 4.05 0 0 0-3.88-1.56c-1.18.25-1.82-.86-2.74-.88-1.9 0-.93-1.5-1.18-2.25-.54-1.65-1.71-2.47-3-3.48-1.89-1.46-3.7-.9-5.6-.69a2.23 2.23 0 0 0-1.09.43c-1.89 1.49-2.16 1.42-3-.84-1.87.16-2.57 2-4 2.89-1 .63-.42 2.38.27 3.47 1.39 2.19.44 4.29-.35 6.24-.41 1-1.93.73-3 .52-2.53-.49-4.23.63-4.52 3a2.33 2.33 0 0 1-.36 1.14 5.92 5.92 0 0 0-1.32 5.24c.21 1-.08 2-1.5 2.15-1.25.1-2.48.31-2.8-1.42s-1.7-3.26-1.53-5.26c0-.36-.4-.86-.75-1.13-2.75-2.06-3.44-5.69-5.87-7.88-2.82-2.55-1.94-6.22-3.37-9.16-.75-1.53 0-2.15 1.74-2.24 1.17-.06 2.44.21 3.07-1.54.41-1.13 1.65.27 2.64-.1"/><path class="cls-5" d="M98.56 77.6a2.63 2.63 0 0 1-1.67 2.08 8.07 8.07 0 0 1-3.53.71c-3 .18-5.39 1.69-7.72 3.38-1 .75-2 1.54-3.1 2.2-2.19 1.32-2.82 3.27-2.55 5.67.07.62.48 1.39-.26 1.86s-1.38-.28-1.94-.65c-1-.69-2.27-1.33-1.4-3 .38-.73-.4-1.18-.81-1.69a1.39 1.39 0 0 1 .5-2.34c2.12-.87 3.35-2.91 5.16-4 3.06-1.76 5.47-4.93 9.48-4.84.33 0 .73-.23 1-.11 1.7.83 3.19.32 4.76-.46 1-.48 1.85-.1 2.09 1.16M123.39 74.31c.67-.27 1-1.54 1.94-.75s2.2 1.23 2.34 2.6c.11 1.13-.76 1.61-1.66 2a10.16 10.16 0 0 0-1.44.7c-1.14.73-1.68.39-1.47-.9.17-1.07-.15-1.43-1.22-1.47-2.45-.09-3.54-2.22-5-3.7-.85-.88.94-5.36 2.11-5.78.85-.3 2.26 1 2.22 2.25a2.22 2.22 0 0 0 1.21 2.29c1.06.6.71 1.77 1 2.76M166.12 71.57a2.49 2.49 0 0 1-1 2.25 2.53 2.53 0 0 0-1.1 1.15c-.49 1.22-1.21 1.87-2.64 1.41a3.57 3.57 0 0 1-2.54-3.06c-.06-.35.1-1 .34-1.1 1.67-.79 2.81-2.56 4.94-2.54 1.46 0 1.8.88 2 1.89M21.43 104.64c-1.19 0-3.8-3.73-3.37-4.82.23-.59.85-.67 1.33-.73 1.65-.19 4 2.79 3.5 4.39a1.75 1.75 0 0 1-1.46 1.16"/></g><g class="cls-2"><path class="cls-6" d="M194.93 67.19c0 8.68-15.72 36.69-15.72 36.69s-15.72-28-15.72-36.69a15.72 15.72 0 0 1 31.45 0"/><path class="cls-7" d="M188.36 67.19a9.16 9.16 0 1 1-9.15-9.19 9.16 9.16 0 0 1 9.16 9.16"/><path d="M80.85 128.36l-1.28.2a1.31 1.31 0 0 1-.42-2.59l1.31-.2a1.31 1.31 0 0 1 .41 2.59m-11.57 2.26a1.31 1.31 0 0 1-.52-2.57l1.29-.3a1.31 1.31 0 1 1 .59 2.55l-1.26.3h-.09m22-3.41h-.12l-1.29.1a1.31 1.31 0 1 1-.21-2.61l1.32-.1a1.31 1.31 0 0 1 .3 2.6m-32.08 6.22a1.31 1.31 0 0 1-.6-2.54l1.26-.39a1.31 1.31 0 0 1 .77 2.51l-1.24.38h-.18m42.55-6.5h-1.53a1.31 1.31 0 0 1 0-2.62h1.32a1.31 1.31 0 0 1 .19 2.6m-52.44 10a1.31 1.31 0 0 1-.69-2.52l1.23-.47a1.31 1.31 0 0 1 .93 2.45l-1.21.47a1.32 1.32 0 0 1-.26.07m62.89-9.37a1.34 1.34 0 0 1-.35 0l-1.29-.13a1.31 1.31 0 1 1 .24-2.61l1.32.13a1.31 1.31 0 0 1 .08 2.6m10.36 1.54a1.3 1.3 0 0 1-.46 0l-1.27-.24a1.31 1.31 0 1 1 .47-2.58l1.3.25a1.31 1.31 0 0 1 0 2.58m10.18 2.47a1.29 1.29 0 0 1-.58 0l-1.25-.35a1.31 1.31 0 1 1 .7-2.52l1.27.36a1.31 1.31 0 0 1-.15 2.55m9.92 3.39a1.3 1.3 0 0 1-.69-.08l-1.21-.47a1.31 1.31 0 0 1 .93-2.45l1.24.48a1.31 1.31 0 0 1-.27 2.51M130.42 93.81h-.08s-.39-.09-1.08-.2h-.12a1.31 1.31 0 0 1 .41-2.59h.14c.81.13 1.23.23 1.23.23a1.31 1.31 0 0 1-.5 2.57m-11.76-.86a1.31 1.31 0 0 1 .18-2.6h1.34a1.31 1.31 0 0 1 0 2.62h-1.52m-10.43 1a1.31 1.31 0 0 1 0-2.59l1.32-.21a1.31 1.31 0 1 1 .39 2.59l-1.27.2a1.32 1.32 0 0 1-.42 0M98 96.37a1.31 1.31 0 0 1-.18-2.54l1.28-.39a1.31 1.31 0 0 1 .74 2.51l-1.23.38a1.3 1.3 0 0 1-.6 0m-9.76 3.81a1.31 1.31 0 0 1-.35-2.48l1.21-.56a1.31 1.31 0 0 1 1.08 2.39l-1.17.54a1.3 1.3 0 0 1-.77.11m-9.16 5.07a1.31 1.31 0 0 1-.5-2.4l1.13-.71a1.31 1.31 0 0 1 1.38 2.23l-1.09.69a1.31 1.31 0 0 1-.92.19m-8.45 6.19a1.31 1.31 0 0 1-.62-2.3l1-.84a1.31 1.31 0 0 1 1.64 2l-1 .82a1.31 1.31 0 0 1-1 .28M63 118.57a1.31 1.31 0 0 1-.73-2.2l.93-1a1.31 1.31 0 0 1 1.86 1.84l-.9.92a1.31 1.31 0 0 1-1.16.38m-6.27 7.14a1.31 1.31 0 0 1-.81-2.11l.22-.27a1.31 1.31 0 1 1 2 1.65l-.21.26a1.31 1.31 0 0 1-1.24.48"/><path d="M175.89 111.16a1.31 1.31 0 0 1 1.88-1.81l1 .88a1.31 1.31 0 1 1-1.75 2l-1-.85a1.38 1.38 0 0 1-.17-.17m-8.41-6.25a1.31 1.31 0 0 1 1.73-1.92l1.12.73a1.31 1.31 0 1 1-1.45 2.18l-1.08-.7a1.27 1.27 0 0 1-.32-.28m-9.2-5a1.31 1.31 0 0 1 1.57-2l1.21.57a1.31 1.31 0 0 1-1.13 2.36l-1.17-.55a1.32 1.32 0 0 1-.48-.37m-9.79-3.7a1.31 1.31 0 0 1 1.4-2.07l1.27.4a1.31 1.31 0 0 1-.8 2.5l-1.23-.38a1.3 1.3 0 0 1-.64-.43m-10.2-2.37a1.31 1.31 0 0 1 1.23-2.11l1.31.23a1.31 1.31 0 0 1-.47 2.58l-1.27-.22a1.3 1.3 0 0 1-.81-.47m-10.42-1.06a1.31 1.31 0 0 1 1.08-2.13l1.33.06a1.31 1.31 0 0 1-.15 2.62l-1.29-.06a1.3 1.3 0 0 1-1-.49"/><path class="cls-6" d="M63 96.23c0 8.68-15.72 36.69-15.72 36.69s-15.72-28-15.72-36.69a15.72 15.72 0 0 1 31.45 0"/><path class="cls-7" d="M56.43 96.23a9.16 9.16 0 1 1-9.16-9.16 9.16 9.16 0 0 1 9.16 9.16"/><path class="cls-6" d="M158.17 91.38c0 8.68-15.72 36.69-15.72 36.69s-15.72-28-15.72-36.69a15.72 15.72 0 1 1 31.45 0"/><path class="cls-7" d="M151.6 91.38a9.16 9.16 0 1 1-9.16-9.16 9.16 9.16 0 0 1 9.16 9.16"/><path d="M38.05 8.11A24.65 24.65 0 1 0 62.7 32.76 24.68 24.68 0 0 0 38.05 8.11m0 51.92a27.27 27.27 0 1 1 27.27-27.27A27.3 27.3 0 0 1 38.05 60M38.05 165.26a24.65 24.65 0 1 0 24.65 24.65 24.68 24.68 0 0 0-24.65-24.65m0 51.92a27.27 27.27 0 1 1 27.27-27.27 27.3 27.3 0 0 1-27.27 27.27"/></g><path d="M26.48 30.05L22 25.58l4.48-4.48 1.85 1.85-2.62 2.63 2.62 2.62-1.85 1.85z"/><path d="M23.85 24.27h28.4v2.62h-28.4zM49.63 44.26l-1.85-1.86 2.62-2.62-2.62-2.63 1.85-1.85 4.48 4.48-4.48 4.48z"/><path d="M23.85 38.47h28.4v2.62h-28.4z"/><path d="M190 157.4a29.89 29.89 0 1 0 29.89 29.89A29.92 29.92 0 0 0 190 157.4m0 62.4a32.51 32.51 0 1 1 32.51-32.51A32.55 32.55 0 0 1 190 219.8" class="cls-2"/><path d="M172.31 196.32h35.3V175.7h-35.3zm37.92 2.62h-40.54v-25.86h40.54z"/><path d="M172.31 196.32h35.3v-3.19h-35.3zm37.92 2.62h-40.54v-8.43h40.54z"/><path d="M184.84 202.56h11.5l-1.56-3.62h-8.38zm15.48 2.62h-19.46l3.81-8.86h11.84zM27.66 176.81h20.8v2.62h-20.8zM27.66 184.67h20.8v2.62h-20.8zM27.66 192.53h20.8v2.62h-20.8zM32.9 200.39h10.32v2.62H32.9z"/><g class="cls-2"><path d="M180.86 2.62a19.63 19.63 0 1 0 19.63 19.63 19.65 19.65 0 0 0-19.63-19.63m0 41.87a22.25 22.25 0 1 1 22.25-22.25 22.27 22.27 0 0 1-22.25 22.25"/><path d="M176.66 32.95v1.31a3.84 3.84 0 0 0 1.63-.4 3.15 3.15 0 0 0 1.22-1.07 3.44 3.44 0 0 0 .55-1.94h-1.31v1.31h12.59v-1.31h-1.31.6-.6a1.27 1.27 0 0 1 0 .2 1 1 0 0 1-.2.44.44.44 0 0 1-.15.11 1 1 0 0 1-.4.07h-12.62v2.62h12.59a3.44 3.44 0 0 0 1.94-.55 3.1 3.1 0 0 0 .89-.91 3.75 3.75 0 0 0 .51-1.29 3.52 3.52 0 0 0 .07-.65v-1.35h-15.21v1.31a.84.84 0 0 1-.11.48.47.47 0 0 1-.14.14 1.14 1.14 0 0 1-.38.14h-.15v.52-.52 1.31z"/><path d="M187.15 30.85h1.31V14.06a3.89 3.89 0 0 0-.41-1.63 3.18 3.18 0 0 0-1.05-1.21 3.43 3.43 0 0 0-1.93-.55h-11.79v3.41h1.31v-1.31h-1.33v18.08a3.88 3.88 0 0 0 .4 1.63 3.16 3.16 0 0 0 1.07 1.22 3.44 3.44 0 0 0 1.94.55h12.59v-2.6.6-.6h-.19a1 1 0 0 1-.44-.2.43.43 0 0 1-.11-.15 1 1 0 0 1-.07-.41h-2.62a3.45 3.45 0 0 0 .55 1.94 3.12 3.12 0 0 0 .91.89 3.73 3.73 0 0 0 1.3.51 3.63 3.63 0 0 0 .66.07v-2.66h-12.59a.83.83 0 0 1-.48-.11.48.48 0 0 1-.14-.14 1.16 1.16 0 0 1-.14-.39 1.48 1.48 0 0 1 0-.15h-.52.52-.52.52V14.08h-1.31v1.31h1.33V12h-1.31v1.31h10.47a.82.82 0 0 1 .47.11.5.5 0 0 1 .14.15 1.18 1.18 0 0 1 .15.39 1.45 1.45 0 0 1 0 .15h.52-.52.52-.52v16.74z"/><path d="M185.06 12v-1.33a3.84 3.84 0 0 0-1.63.4 3.16 3.16 0 0 0-1.22 1.07 3.44 3.44 0 0 0-.55 1.94H183v-1.31h-12.63v1.31h1.31-.6.6a1.27 1.27 0 0 1 0-.2 1 1 0 0 1 .2-.44.43.43 0 0 1 .15-.11 1 1 0 0 1 .4-.07h12.59v-2.59h-12.55a3.44 3.44 0 0 0-1.94.55 3.1 3.1 0 0 0-.88.9 3.75 3.75 0 0 0-.51 1.29 3.52 3.52 0 0 0-.07.65v1.32h15.21v-1.3a.84.84 0 0 1 .11-.49.47.47 0 0 1 .14-.14 1.16 1.16 0 0 1 .38-.14h.15v-.53.53V12z"/></g></g></g></svg>