<svg xmlns="http://www.w3.org/2000/svg" viewBox="0 0 256 256"><defs><style>.cls-1{fill:#56cbcd}.cls-2{fill:#fff}.cls-3{fill:#141515}.cls-4{fill:#dd016b}</style></defs><title>block1_1_center</title><g id="Слой_2" data-name="Слой 2"><g id="Layer_3" data-name="Layer 3"><circle class="cls-1" cx="128" cy="128" r="128"/><circle class="cls-2" cx="128" cy="128" r="96"/><path class="cls-3" d="M145.16 72.37l1 .33a2.12 2.12 0 1 1-1.33 4l-.95-.3a2.12 2.12 0 1 1 1.24-4.06zM112.7 74a2.12 2.12 0 0 1-1.37 2.67l-.94.32a2.12 2.12 0 0 1-1.4-4l1-.35A2.12 2.12 0 0 1 112.7 74zm48.79 6.41l.88.63a2.12 2.12 0 1 1-2.51 3.42l-.8-.58a2.12 2.12 0 1 1 2.44-3.47zm-64.72 1a2.12 2.12 0 0 1-.47 3l-.8.59a2.12 2.12 0 0 1-2.56-3.39l.87-.64a2.12 2.12 0 0 1 3 .47zm77.78 11.7l.64.87a2.12 2.12 0 1 1-3.44 2.48l-.59-.8a2.12 2.12 0 0 1 3.39-2.55zm-90.65.19a2.12 2.12 0 0 1 .47 3l-.58.81a2.12 2.12 0 1 1-3.48-2.44l.62-.87a2.12 2.12 0 0 1 3-.46zm99.16 15.85q.18.51.34 1a2.12 2.12 0 0 1-4 1.29c-.1-.32-.2-.63-.31-.94a2.12 2.12 0 1 1 4-1.38zm-107.73-.55a2.12 2.12 0 0 1 1.36 2.68q-.15.47-.3 1a2.12 2.12 0 1 1-4.05-1.28q.16-.51.32-1a2.12 2.12 0 0 1 2.68-1.36zm110.85 18.49v1.06a2.12 2.12 0 0 1-4.24 0V128v-.84A2.12 2.12 0 0 1 184 125a2.12 2.12 0 0 1 2.18 2.09zM74.06 128v.94a2.12 2.12 0 0 1-2.06 2.15 2.12 2.12 0 0 1-2.18-2.09v-1.05a2.1 2.1 0 0 1 2.12-2.1 2.15 2.15 0 0 1 2.12 2.15zm108.16 14.46a2.12 2.12 0 0 1 1.41 2.65c-.1.35-.21.69-.33 1a2.12 2.12 0 0 1-4-1.33q.16-.47.3-.94a2.12 2.12 0 0 1 2.65-1.41zM76.66 144.6q.15.48.32.95a2.12 2.12 0 0 1-4 1.38q-.18-.51-.34-1a2.12 2.12 0 1 1 4-1.31zm98.45 13.88a2.12 2.12 0 0 1 .51 3l-.62.87a2.12 2.12 0 1 1-3.43-2.5l.58-.81a2.12 2.12 0 0 1 3-.51zm-90.8 1.16l.59.8a2.12 2.12 0 0 1-3.38 2.56l-.64-.87a2.12 2.12 0 1 1 3.43-2.49zm79.07 11.89a2.12 2.12 0 0 1-.41 3l-.87.64a2.12 2.12 0 1 1-2.49-3.44l.8-.59a2.12 2.12 0 0 1 3 .41zm-67.15.06l.81.58a2.12 2.12 0 1 1-2.44 3.47l-.87-.62a2.12 2.12 0 1 1 2.5-3.43zm52 8.76a2.12 2.12 0 0 1-1.32 2.7l-1 .34a2.12 2.12 0 0 1-1.3-4l.95-.31a2.12 2.12 0 0 1 2.7 1.32zm-37-1.07l.95.3a2.12 2.12 0 1 1-1.24 4.06l-1-.32a2.12 2.12 0 1 1 1.32-4zM131 184a2.12 2.12 0 0 1-2.09 2.16h-1.07a2.12 2.12 0 1 1 0-4.24h1A2.12 2.12 0 0 1 131 184zm0-111.77a2.12 2.12 0 0 1-2 2.17h-1.07a2.12 2.12 0 0 1 0-4.24h1a2.12 2.12 0 0 1 2.07 2.08zM126.5 217.04h4v16h-4zM126.5 24.71h4v16h-4zM23.98 126.52h16v4h-16zM217.02 126.52h16v4h-16z"/><path class="cls-3" transform="rotate(-45 60.255 60.271)" d="M58.25 52.27h4v16h-4z"/><path class="cls-3" transform="rotate(-45 196.755 196.771)" d="M194.75 188.77h4v16h-4z"/><path class="cls-3" transform="rotate(-45 60.243 196.766)" d="M52.25 194.77h16v4h-16z"/><path class="cls-3" transform="rotate(-45 196.755 60.271)" d="M188.75 58.27h16v4h-16z"/><path class="cls-3" transform="rotate(-66.18 40.214 89.53)" d="M38.21 81.53h4v16h-4z"/><path class="cls-3" transform="rotate(-66.16 216.812 167.513)" d="M214.79 159.51h4v16h-4z"/><path class="cls-3" transform="rotate(-66.17 89.516 216.813)" d="M81.51 214.81h16v4h-16z"/><path class="cls-3" transform="rotate(-66.17 167.51 40.22)" d="M159.49 38.23h16v4h-16z"/><path class="cls-3" transform="rotate(-23.83 216.788 89.528)" d="M208.79 87.53h16v4h-16z"/><path class="cls-3" transform="rotate(-23.83 40.195 167.506)" d="M32.21 165.51h16v4h-16z"/><path class="cls-3" transform="rotate(-23.82 167.489 216.798)" d="M165.49 208.81h4v16h-4z"/><path class="cls-3" transform="rotate(-23.84 89.51 40.222)" d="M87.51 32.23h4v16h-4z"/><path class="cls-2" d="M107.86 121.72v-4.91s0-4.91 4.91-4.91v-9.8s4.91.11 4.91-4.91c0 9.81 9.81 9.81 9.81 9.81h14.71v19.62a14.72 14.72 0 0 1-9.83 13.88v5.74h-19.6v-19.62a4.62 4.62 0 0 1-4.91-4.9z"/><path class="cls-1" d="M88.24 161c7.51-14.72 19.62-14.72 19.62-14.72h29.43s12.11 0 19.62 14.72c2.49 4.88 7.28 11.37 12 17.87 9.49 13.12-7 19.82-12.27 13a91.91 91.91 0 0 1-9.64-16.2l-1.29 18.69-48.73-3.72 1.05-15c0 .73.33-.62 0 0a124.68 124.68 0 0 1-7.07 11.42c-5.17 7.45-15.84-.89-11.41-10.83 3.4-7.73 7.64-13.23 8.69-15.23z"/><path class="cls-2" d="M142.2 107s9.81 0 9.81-9.81-9.81-9.81-9.81-9.81h-24.53s-4.91 0-4.91 4.91c0 0-9.81 0-9.81 9.81v14.72s0 4.91 4.91 4.91v-4.91s0-4.91 4.91-4.91v-9.81s4.91.11 4.91-4.91c0 0 0 9.81 9.81 9.81z"/><path d="M142.2 107v-1.23a11.06 11.06 0 0 0 4.46-1.15 7.33 7.33 0 0 0 2.84-2.5 10.07 10.07 0 0 0 0-9.93 7.11 7.11 0 0 0-2.1-2 10.15 10.15 0 0 0-3.5-1.36 11.23 11.23 0 0 0-1.23-.17h-25a4.94 4.94 0 0 0-2 .53 3 3 0 0 0-1.16 1 3.8 3.8 0 0 0-.53 2.11v1.23h-1.23a11.06 11.06 0 0 0-4.46 1.15 7.33 7.33 0 0 0-2.84 2.5 8.79 8.79 0 0 0-1.29 4.94v14.72a4.94 4.94 0 0 0 .53 2 3 3 0 0 0 1 1.16 3.81 3.81 0 0 0 2.11.53v1.23h-1.23v-4.91a7.26 7.26 0 0 1 .74-3 5.53 5.53 0 0 1 1.87-2.16 6.21 6.21 0 0 1 3.52-1v1.23h-1.23v-11.08h1.26v.63-.63.63-.63a4.35 4.35 0 0 0 .71-.07 3.93 3.93 0 0 0 1.91-.86 2.79 2.79 0 0 0 .71-1 4.37 4.37 0 0 0 .32-1.75h2.45a11.06 11.06 0 0 0 1.15 4.46 7.33 7.33 0 0 0 2.5 2.84 8.79 8.79 0 0 0 4.94 1.29h14.78v2.45h-14.72a11.2 11.2 0 0 1-6.35-1.74 9.57 9.57 0 0 1-2.74-2.81 12.57 12.57 0 0 1-1.7-4.36 12 12 0 0 1-.24-2.13h2.45a6.39 6.39 0 0 1-.89 3.44 5.26 5.26 0 0 1-1.5 1.56 6.52 6.52 0 0 1-2.35 1 6.9 6.9 0 0 1-1.36.15h-.06v-1.23H114v11h-1.23a3.76 3.76 0 0 0-2.16.56 2.94 2.94 0 0 0-.84.87 4.47 4.47 0 0 0-.59 1.54 5 5 0 0 0-.08.55v6.27h-1.23a6.21 6.21 0 0 1-3.52-1 5.4 5.4 0 0 1-1.55-1.59 6.89 6.89 0 0 1-.94-2.39 6.59 6.59 0 0 1-.13-1.18V102.1a11.2 11.2 0 0 1 1.74-6.35 9.57 9.57 0 0 1 2.82-2.75 12.57 12.57 0 0 1 4.36-1.7 12 12 0 0 1 2.13-.24v1.23h-1.23a6.21 6.21 0 0 1 1-3.52 5.4 5.4 0 0 1 1.59-1.55 6.89 6.89 0 0 1 2.39-.94 6.58 6.58 0 0 1 1.18-.13h24.49a13.37 13.37 0 0 1 5.45 1.36 9.84 9.84 0 0 1 3.84 3.33 12.47 12.47 0 0 1 0 12.7 9.57 9.57 0 0 1-2.81 2.74 12.57 12.57 0 0 1-4.36 1.7 12 12 0 0 1-2.13.24z"/><path class="cls-2" d="M132.39 146.24l-7.83 55.48-3.95-1.1-7.84-54.38h19.62z"/><path d="M111.54 126.62H114a13.49 13.49 0 0 0 27 0v-18.39h-13.52c-3.07 0-8.33-1.49-10.28-6.6a6.28 6.28 0 0 1-3.2 1.57v9.93h-1.23a3.5 3.5 0 0 0-3.68 3.68v4.91h-2.45v-4.91a5.93 5.93 0 0 1 4.91-6v-9.93h1.26a4.25 4.25 0 0 0 2.71-1 3.57 3.57 0 0 0 .94-2.66h2.45c0 8.44 8.24 8.58 8.58 8.58h15.94v20.85a16 16 0 0 1-9.81 14.72v6.13h-22.08zm19.62 15.51a15.95 15.95 0 0 1-17.17-7V145h17.17z"/><path d="M115.06 155.18l7.52-5.01 7.5 5 8.27-8.05-1.71-1.76-6.85 6.67-7.21-4.81-7.2 4.8-6.65-6.64-1.73 1.73 8.06 8.07z"/><path d="M121.35 148.7h2.45v49.67h-2.45z"/><circle cx="122.68" cy="118.04" r="1.23"/><circle cx="138.02" cy="118.04" r="1.23"/><path d="M119.42 115.19a4.8 4.8 0 0 1 6.66-1.35l1.35-2a7.25 7.25 0 0 0-10.06 2zM129.94 126.62h5.13V114.9a4.8 4.8 0 0 1 6.45-1.07l1.35-2a7.25 7.25 0 0 0-10.06 2l-.2.31v10h-2.68zM125.84 131.2h9.08v2.25h-9.08z"/><path class="cls-4" d="M51.43 128A76.57 76.57 0 1 0 128 51.43 76.57 76.57 0 0 0 51.43 128zm24.81 0A51.76 51.76 0 1 1 128 179.76 51.76 51.76 0 0 1 76.24 128z"/></g></g></svg>