<svg xmlns="http://www.w3.org/2000/svg" viewBox="0 0 277.33 277.33"><defs><style>.cls-1{fill:#56cbcd}.cls-2,.cls-7,.cls-8{fill:none}.cls-2{stroke:#141515;stroke-width:4px;stroke-dasharray:2.01 12.07}.cls-2,.cls-7{stroke-linecap:round}.cls-2,.cls-8{stroke-miterlimit:10}.cls-3{fill:#fff}.cls-4{fill:#f9f0ea}.cls-5{fill:#35c9cb}.cls-6{fill:#020210}.cls-7,.cls-8{stroke:#020210}.cls-7{stroke-linejoin:round;stroke-width:2px}.cls-8{stroke-width:1.5px}.cls-9{fill:#dd016b}</style></defs><title>block2_1_center</title><g id="Слой_2" data-name="Слой 2"><g id="Layer_3" data-name="Layer 3"><circle class="cls-1" cx="138.67" cy="138.67" r="128"/><circle class="cls-2" cx="138.67" cy="138.67" r="136.67"/><circle class="cls-3" cx="138.67" cy="138.67" r="100"/><path class="cls-3" d="M121.45 159.33c-9.17-6.31-15.28-17.64-15.28-30.58 0-19.8 14.33-35.85 32-35.85s32 16.05 32 35.85c0 12.94-6.12 24.27-15.28 30.58z"/><path class="cls-3" d="M164.17 192.9v-24a7.86 7.86 0 0 0-3.43-6.06l-16.57-9.94-6 36-6-36-16.57 9.94a7.86 7.86 0 0 0-3.43 6.06v24z"/><path class="cls-4" d="M144.17 145.9v7l-6 36-6-36v-6.5l12-.5z"/><path class="cls-4" d="M140.17 122.9a8 8 0 0 1-8-8 8 8 0 0 1-8 8v10a14 14 0 1 0 28 0v-10z"/><circle class="cls-5" cx="132.17" cy="130.89" r="4"/><circle class="cls-5" cx="144.17" cy="130.89" r="4"/><path class="cls-6" d="M122.57 158a.93.93 0 0 1-.53-.16c-9.18-6.31-14.66-17.27-14.66-29.3 0-19 13.81-34.38 30.79-34.38S169 109.61 169 128.57c0 12-5.48 23-14.66 29.3a.93.93 0 0 1-1.06-1.54c8.68-6 13.85-16.34 13.85-27.76 0-17.93-13-32.52-28.92-32.52s-28.92 14.59-28.92 32.52c0 11.42 5.18 21.79 13.86 27.76a.93.93 0 0 1-.53 1.7z"/><path class="cls-6" d="M112.17 193.9a1 1 0 0 1-1-1v-24a8.82 8.82 0 0 1 3.92-6.92l16.56-9.98a1 1 0 1 1 1 1.71l-16.57 9.94a6.83 6.83 0 0 0-2.94 5.2v24a1 1 0 0 1-.97 1.05zM164.17 193.9a1 1 0 0 1-1-1v-24a6.83 6.83 0 0 0-2.94-5.2l-16.57-9.94a1 1 0 0 1 1-1.71l16.59 9.95a8.82 8.82 0 0 1 3.92 6.92v24a1 1 0 0 1-1 .98z"/><path class="cls-6" d="M132.17 153.9a1 1 0 0 1-1-1v-6.5a1 1 0 0 1 2 0v6.5a1 1 0 0 1-1 1zM144.17 153.9a1 1 0 0 1-1-1v-7a1 1 0 0 1 2 0v7a1 1 0 0 1-1 1z"/><path class="cls-6" d="M138.17 189.9a1 1 0 0 1-1-.84l-6-36a1 1 0 1 1 2-.33l6 36a1 1 0 0 1-.82 1.15z"/><path class="cls-6" d="M138.17 189.9H138a1 1 0 0 1-.82-1.15l6-36a1 1 0 0 1 2 .33l-6 36a1 1 0 0 1-1.01.82z"/><path class="cls-6" d="M138.17 189.9a1 1 0 0 1-.82-1.57l14-20a1 1 0 0 1 1.64 1.15l-14 20a1 1 0 0 1-.82.42z"/><path class="cls-6" d="M152.17 169.9a1 1 0 0 1-1-1v-11a1 1 0 0 1 2 0v11a1 1 0 0 1-1 1zM140.17 123.9a9 9 0 0 1-9-9 1 1 0 0 1 2 0 7 7 0 0 0 7 7 1 1 0 0 1 0 2z"/><path class="cls-6" d="M156.17 123.9h-16a1 1 0 0 1 0-2h16a1 1 0 0 1 0 2zM138.17 147.9a15 15 0 0 1-15-15 1 1 0 0 1 2 0 13 13 0 1 0 26 0 1 1 0 0 1 2 0 15 15 0 0 1-15 15zM124.17 123.9a1 1 0 0 1 0-2 7 7 0 0 0 7-7 1 1 0 0 1 2 0 9 9 0 0 1-9 9z"/><path class="cls-6" d="M124.17 123.9h-4a1 1 0 0 1 0-2h4a1 1 0 0 1 0 2zM152.17 133.9a1 1 0 0 1-1-1v-10a1 1 0 0 1 2 0v10a1 1 0 0 1-1 1z"/><path class="cls-6" d="M124.17 133.9a1 1 0 0 1-1-1v-10a1 1 0 0 1 2 0v10a1 1 0 0 1-1 1zM124.17 169.9a1 1 0 0 1-1-1v-10.72a1 1 0 0 1 2 0v10.72a1 1 0 0 1-1 1z"/><path class="cls-6" d="M138.17 189.9a1 1 0 0 1-.82-.43l-14-20a1 1 0 1 1 1.64-1.15l14 20a1 1 0 0 1-.82 1.57z"/><path class="cls-6" d="M124.17 169.9a1 1 0 0 1-.32-1.95l6-2a1 1 0 0 1 .63 1.9l-6 2a1 1 0 0 1-.31.05zM152.17 169.9a1 1 0 0 1-.32-.05l-6-2a1 1 0 0 1 .63-1.9l6 2a1 1 0 0 1-.32 1.95zM138.17 193.9a1 1 0 0 1-1-1v-4a1 1 0 0 1 2 0v4a1 1 0 0 1-1 1zM132.17 135.9a5 5 0 1 1 5-5 5 5 0 0 1-5 5zm0-8a3 3 0 1 0 3 3 3 3 0 0 0-3-3zM144.17 135.9a5 5 0 1 1 5-5 5 5 0 0 1-5 5zm0-8a3 3 0 1 0 3 3 3 3 0 0 0-3-3z"/><path class="cls-6" d="M140.17 131.9h-4a1 1 0 0 1 0-2h4a1 1 0 0 1 0 2zM120.17 177.9a1 1 0 0 1-1-1v-12a1 1 0 0 1 2 0v12a1 1 0 0 1-1 1z"/><path class="cls-6" d="M120.17 165.9a1 1 0 0 1-1-1 17 17 0 0 1 12.75-16.47 1 1 0 1 1 .5 1.94 15 15 0 0 0-11.25 14.53 1 1 0 0 1-1 1zM156.17 165.9a1 1 0 0 1-1-1 15 15 0 0 0-11.25-14.53 1 1 0 1 1 .5-1.94 17 17 0 0 1 12.75 16.47 1 1 0 0 1-1 1z"/><path class="cls-6" d="M156.17 183.9a1 1 0 0 1-1-1v-18a1 1 0 0 1 2 0v18a1 1 0 0 1-1 1z"/><path class="cls-6" d="M156.17 187.9a3 3 0 1 1 3-3 3 3 0 0 1-3 3zm0-4a1 1 0 1 0 1 1 1 1 0 0 0-1-1zM124.17 181.9a1 1 0 0 1-1-1 3 3 0 0 0-6 0 1 1 0 0 1-2 0 5 5 0 0 1 10 0 1 1 0 0 1-1 1z"/><path class="cls-6" d="M116.17 185.9a1 1 0 0 1-1-1v-4a1 1 0 0 1 2 0v4a1 1 0 0 1-1 1zM124.17 185.9a1 1 0 0 1-1-1v-4a1 1 0 0 1 2 0v4a1 1 0 0 1-1 1z"/><path class="cls-6" d="M118.17 187.9a3 3 0 0 1-3-3 1 1 0 0 1 2 0 1 1 0 0 0 1 1 1 1 0 1 1 0 2zM122.17 187.9a1 1 0 0 1 0-2 1 1 0 0 0 1-1 1 1 0 0 1 2 0 3 3 0 0 1-3 3z"/><path class="cls-8" d="M141.86 139.37c0 2-1.65 3.17-3.69 3.17s-3.69-1.17-3.69-3.17c-.01-.58 7.38-.59 7.38 0z"/><path class="cls-9" d="M138.67 59.1a79.57 79.57 0 1 0 79.57 79.57 79.57 79.57 0 0 0-79.57-79.57zm0 133.36a53.79 53.79 0 1 1 53.79-53.79 53.79 53.79 0 0 1-53.79 53.79z"/><path class="cls-6" d="M136.67 226.83h4v16h-4zM136.67 34.5h4v16h-4zM227.19 136.31h16v4h-16zM34.15 136.31h16v4h-16z"/><path class="cls-6" transform="rotate(-45 206.912 70.064)" d="M198.92 68.06h16v4h-16z"/><path class="cls-6" transform="rotate(-45 70.412 206.564)" d="M62.42 204.56h16v4h-16z"/><path class="cls-6" transform="rotate(-45 206.936 206.574)" d="M204.92 198.56h4v16h-4z"/><path class="cls-6" transform="rotate(-45 70.412 70.065)" d="M68.42 62.06h4v16h-4z"/><path class="cls-6" transform="rotate(-23.82 226.933 99.316)" d="M218.96 97.32h16v4h-16z"/><path class="cls-6" transform="rotate(-23.84 50.357 177.287)" d="M42.37 175.3h16v4h-16z"/><path class="cls-6" transform="rotate(-23.83 177.646 226.582)" d="M175.66 218.61h4v16h-4z"/><path class="cls-6" transform="rotate(-23.83 99.663 50.013)" d="M97.67 42.02h4v16h-4z"/><path class="cls-6" transform="rotate(-66.17 50.373 99.318)" d="M48.37 91.32h4v16h-4z"/><path class="cls-6" transform="rotate(-66.17 226.963 177.3)" d="M224.96 169.3h4v16h-4z"/><path class="cls-6" transform="rotate(-66.18 99.683 226.607)" d="M91.67 224.61h16v4h-16z"/><path class="cls-6" transform="rotate(-66.16 177.67 50.016)" d="M169.66 48.02h16v4h-16z"/></g></g></svg>