<svg xmlns="http://www.w3.org/2000/svg" viewBox="0 0 301.63 290"><defs><style>.cls-1{fill:#de006b}.cls-2{fill:#231f20}.cls-3{fill:#30241c}.cls-4{fill:#fff}.cls-5{fill:#57cccc}.cls-6,.cls-7{fill:none;stroke:#221e1f;stroke-linecap:round;stroke-linejoin:round;stroke-width:3px}.cls-6{stroke-dasharray:0 9.12}.cls-8{fill:#800aa8}</style></defs><title>block1_2_center</title><g id="Слой_2" data-name="Слой 2"><g id="Layer_3" data-name="Layer 3"><path class="cls-1" d="M207.28 144.65c0 32.1-26.36 58.12-58.88 58.12s-58.88-26-58.88-58.12 26.36-58.12 58.88-58.12 58.88 26 58.88 58.12"/><path class="cls-2" d="M147.05 44.81h2.53v9.98h-2.53zM147.05 234.51h2.53v9.98h-2.53zM47.17 143.4h10.11v2.5H47.17zM239.35 143.4h10.11v2.5h-10.11zM213.58 82l-1.79-1.77 7.15-7.06 1.79 1.77-7.15 7.06zM77.69 216.13l-1.79-1.76 7.15-7.06 1.79 1.76-7.15 7.06zM83.06 82l-7.16-7.06 1.79-1.77 7.15 7.06L83.06 82zM218.94 216.13l-7.15-7.06 1.79-1.76 7.15 7.06-1.79 1.76zM196.05 193.09a1.27 1.27 0 0 1-.89-.37l-.22-.22a1.24 1.24 0 0 1 0-1.76 1.28 1.28 0 0 1 1.79 0l.22.22a1.24 1.24 0 0 1 0 1.76 1.27 1.27 0 0 1-.89.37M108.16 106.33a1.27 1.27 0 0 1-.89-.37l-.43-.43a1.24 1.24 0 0 1 0-1.77 1.28 1.28 0 0 1 1.79 0l.43.43a1.24 1.24 0 0 1 0 1.76 1.27 1.27 0 0 1-.89.37m7.34 7.25a1.27 1.27 0 0 1-.89-.37l-.43-.43a1.24 1.24 0 0 1 0-1.77 1.28 1.28 0 0 1 1.79 0l.43.43a1.24 1.24 0 0 1 0 1.77 1.27 1.27 0 0 1-.89.37m7.34 7.25a1.27 1.27 0 0 1-.89-.36l-.43-.43a1.24 1.24 0 0 1 0-1.77 1.27 1.27 0 0 1 1.79 0l.43.43a1.24 1.24 0 0 1 0 1.77 1.27 1.27 0 0 1-.89.36m7.34 7.25a1.27 1.27 0 0 1-.89-.37l-.43-.43a1.24 1.24 0 0 1 0-1.76 1.27 1.27 0 0 1 1.79 0l.43.43a1.24 1.24 0 0 1 0 1.77 1.27 1.27 0 0 1-.89.37m7.34 7.25a1.27 1.27 0 0 1-.89-.37l-.43-.43a1.24 1.24 0 0 1 0-1.76 1.28 1.28 0 0 1 1.79 0l.43.43a1.24 1.24 0 0 1 0 1.77 1.27 1.27 0 0 1-.89.37m7.34 7.25a1.27 1.27 0 0 1-.89-.37l-.43-.43a1.24 1.24 0 0 1 0-1.77 1.28 1.28 0 0 1 1.79 0l.43.43a1.24 1.24 0 0 1 0 1.76 1.27 1.27 0 0 1-.89.37m7.34 7.25a1.27 1.27 0 0 1-.89-.36l-.43-.43a1.24 1.24 0 0 1 0-1.76 1.28 1.28 0 0 1 1.79 0l.43.43a1.24 1.24 0 0 1 0 1.76 1.27 1.27 0 0 1-.89.37m7.34 7.25a1.27 1.27 0 0 1-.89-.37l-.43-.43a1.24 1.24 0 0 1 0-1.77 1.28 1.28 0 0 1 1.79 0l.43.43a1.24 1.24 0 0 1 0 1.76 1.27 1.27 0 0 1-.89.37m7.34 7.25a1.27 1.27 0 0 1-.89-.37l-.43-.43a1.24 1.24 0 0 1 0-1.76 1.28 1.28 0 0 1 1.79 0l.43.43a1.24 1.24 0 0 1 0 1.76 1.27 1.27 0 0 1-.89.37m7.34 7.25a1.27 1.27 0 0 1-.89-.37l-.43-.43a1.24 1.24 0 0 1 0-1.76 1.28 1.28 0 0 1 1.79 0l.43.43a1.24 1.24 0 0 1 0 1.76 1.27 1.27 0 0 1-.89.37m7.34 7.25a1.27 1.27 0 0 1-.89-.37l-.43-.43a1.24 1.24 0 0 1 0-1.76 1.28 1.28 0 0 1 1.79 0l.43.43a1.24 1.24 0 0 1 0 1.76 1.27 1.27 0 0 1-.89.37m7.34 7.25a1.27 1.27 0 0 1-.89-.37l-.43-.43a1.24 1.24 0 0 1 0-1.76 1.28 1.28 0 0 1 1.79 0l.43.43a1.24 1.24 0 0 1 0 1.77 1.27 1.27 0 0 1-.89.37M100.82 99.09a1.27 1.27 0 0 1-.89-.37l-.22-.22a1.24 1.24 0 0 1 0-1.77 1.28 1.28 0 0 1 1.79 0l.22.22a1.24 1.24 0 0 1 0 1.76 1.27 1.27 0 0 1-.89.37"/><path class="cls-3" d="M195.83 99.09a1.27 1.27 0 0 1-.89-.37 1.24 1.24 0 0 1 0-1.76l.22-.22a1.28 1.28 0 0 1 1.79 0 1.24 1.24 0 0 1 0 1.77l-.22.22a1.27 1.27 0 0 1-.89.37"/><path class="cls-2" d="M188.49 106.33a1.27 1.27 0 0 1-.89-.37 1.24 1.24 0 0 1 0-1.77l.43-.43a1.28 1.28 0 0 1 1.79 0 1.24 1.24 0 0 1 0 1.76l-.43.43a1.27 1.27 0 0 1-.89.36m-7.34 7.25a1.27 1.27 0 0 1-.9-.37 1.24 1.24 0 0 1 0-1.77l.43-.43a1.27 1.27 0 0 1 1.79 0 1.24 1.24 0 0 1 0 1.76l-.43.43a1.27 1.27 0 0 1-.89.36m-7.34 7.25a1.27 1.27 0 0 1-.89-.37 1.24 1.24 0 0 1 0-1.77l.43-.43a1.28 1.28 0 0 1 1.79 0 1.24 1.24 0 0 1 0 1.76l-.43.43a1.27 1.27 0 0 1-.9.37m-7.34 7.25a1.27 1.27 0 0 1-.89-.36 1.24 1.24 0 0 1 0-1.77l.43-.43a1.28 1.28 0 0 1 1.79 0 1.24 1.24 0 0 1 0 1.77l-.43.43a1.27 1.27 0 0 1-.89.37m-7.34 7.25a1.27 1.27 0 0 1-.9-.37 1.24 1.24 0 0 1 0-1.76l.43-.43a1.27 1.27 0 0 1 1.79 0 1.24 1.24 0 0 1 0 1.76l-.47.51a1.27 1.27 0 0 1-.89.37m-7.34 7.25a1.27 1.27 0 0 1-.89-.37 1.24 1.24 0 0 1 0-1.77l.43-.43a1.28 1.28 0 0 1 1.79 0 1.24 1.24 0 0 1 0 1.76l-.43.43a1.27 1.27 0 0 1-.89.37m-7.34 7.25a1.27 1.27 0 0 1-.89-.37 1.24 1.24 0 0 1 0-1.76l.43-.43a1.27 1.27 0 0 1 1.79 0 1.24 1.24 0 0 1 0 1.76l-.43.43a1.27 1.27 0 0 1-.89.37m-7.34 7.25a1.27 1.27 0 0 1-.89-.37 1.24 1.24 0 0 1 0-1.77l.43-.43a1.27 1.27 0 0 1 1.79 0 1.24 1.24 0 0 1 0 1.76l-.43.43a1.27 1.27 0 0 1-.89.37m-7.34 7.25a1.27 1.27 0 0 1-.89-.37 1.24 1.24 0 0 1 0-1.77l.43-.43a1.28 1.28 0 0 1 1.79 0 1.24 1.24 0 0 1 0 1.76l-.43.43a1.27 1.27 0 0 1-.89.37m-7.34 7.25a1.27 1.27 0 0 1-.89-.37 1.24 1.24 0 0 1 0-1.76l.44-.46a1.27 1.27 0 0 1 1.79 0 1.24 1.24 0 0 1 0 1.77l-.43.43a1.27 1.27 0 0 1-.89.37m-7.34 7.25a1.27 1.27 0 0 1-.89-.36 1.24 1.24 0 0 1 0-1.77l.43-.43a1.27 1.27 0 0 1 1.79 0 1.24 1.24 0 0 1 0 1.76l-.43.43a1.27 1.27 0 0 1-.89.36m-7.41 7.19a1.27 1.27 0 0 1-.89-.37 1.24 1.24 0 0 1 0-1.76l.43-.43a1.28 1.28 0 0 1 1.79 0 1.24 1.24 0 0 1 0 1.77l-.43.43a1.27 1.27 0 0 1-.89.37M100.6 193.09a1.27 1.27 0 0 1-.89-.37 1.24 1.24 0 0 1 0-1.76l.22-.22a1.28 1.28 0 0 1 1.79 0 1.24 1.24 0 0 1 0 1.76l-.22.22a1.27 1.27 0 0 1-.89.37"/><path class="cls-4" d="M198 144.65s-22.22 24.49-49.62 24.49-49.62-24.49-49.62-24.49 22.24-24.49 49.64-24.49 49.6 24.49 49.6 24.49"/><path class="cls-5" d="M159.15 144.65A10.75 10.75 0 1 1 148.4 134a10.68 10.68 0 0 1 10.75 10.61"/><path class="cls-3" d="M148.4 128.22a16.43 16.43 0 1 0 16.65 16.43 16.56 16.56 0 0 0-16.65-16.43m0 35.36a18.93 18.93 0 1 1 19.18-18.93 19.08 19.08 0 0 1-19.18 18.93"/><path class="cls-3" d="M152.67 144.65a4.27 4.27 0 1 1-4.27-4.21 4.24 4.24 0 0 1 4.27 4.21"/><path class="cls-6" d="M158.74 260.73a116.1 116.1 0 0 0 106.88-111.17l-.26-13.67A116.1 116.1 0 0 0 154.19 29l-13.67.27A116.1 116.1 0 0 0 33.64 140.44l.26 13.67A116.1 116.1 0 0 0 145.07 261z"/><path class="cls-7" d="M265.71 145"/><path class="cls-8" d="M148.4 15.3c6 0 10.41-6.94 5.61-13.25-6.31-4.81-13.26-.42-13.26 5.6a7.65 7.65 0 0 0 7.65 7.65M148.4 290c6 0 10.41-6.94 5.61-13.25-6.31-4.81-13.26-.42-13.26 5.6a7.65 7.65 0 0 0 7.65 7.65M294 152.65c6 0 10.41-6.94 5.61-13.25-6.31-4.81-13.26-.42-13.26 5.6a7.65 7.65 0 0 0 7.65 7.65M7.65 152.3c6 0 10.41-6.94 5.61-13.25-6.31-4.81-13.26-.41-13.26 5.6a7.65 7.65 0 0 0 7.65 7.65"/></g></g></svg>