<svg xmlns="http://www.w3.org/2000/svg" viewBox="0 0 250.28 223.89"><defs><style>.cls-1,.cls-2,.cls-3{fill:none}.cls-2,.cls-3{stroke:#221e1f;stroke-linecap:round;stroke-linejoin:round;stroke-width:3px}.cls-2{stroke-dasharray:0 9.16}.cls-4{fill:#57cccc}.cls-5{fill:#fff}.cls-6{fill:#141414}.cls-7{clip-path:url(#clip-path)}.cls-8{fill:#de006b}.cls-9{fill:#800aa8}</style><clipPath id="clip-path"><path class="cls-1" d="M25.9 0h198.48v198.48H25.9z"/></clipPath></defs><title>block1_3_center</title><g id="Слой_2" data-name="Слой 2"><g id="Layer_3" data-name="Layer 3"><path class="cls-2" d="M133.76 162.1a64.18 64.18 0 0 0 54.95-58.88l-.49-13.71a64.21 64.21 0 0 0-59-54.81l-13.71.48a64.18 64.18 0 0 0-54.96 58.88l.45 13.71a64.21 64.21 0 0 0 59 54.81z"/><path class="cls-3" d="M188.87 98.64000000000001"/><path class="cls-1" d="M49.89 26.04h149.48v139.2H49.89z"/><path class="cls-4" d="M182.91 99.24a57.77 57.77 0 1 1-57.77-57.77 57.77 57.77 0 0 1 57.77 57.77"/><path class="cls-5" d="M105.26 87.07a26.16 26.16 0 0 1 19.94-25.39 26.08 26.08 0 0 0-32.4 25.39l-6.23 16.2v2.49h6.23V117a7.48 7.48 0 0 0 7.48 7.48h7.48v15h7.48v-15c0-12.46-10-22.93-10-37.39"/><path class="cls-6" d="M109 139.42h-2.5v-13.71h-6.23a8.73 8.73 0 0 1-8.72-8.71v-10h-5a1.25 1.25 0 0 1-1.25-1.25v-2.49a1.24 1.24 0 0 1 .08-.45l6.15-16A27.45 27.45 0 0 1 119 59.66v2.49a25 25 0 0 0-25 24.92 1.22 1.22 0 0 1-.08.45l-6.15 16v1h5a1.25 1.25 0 0 1 1.23 1.25V117a6.24 6.24 0 0 0 6.23 6.23h7.48a1.25 1.25 0 0 1 1.25 1.25z"/><path class="cls-1" d="M25.9 0h198.48v198.48H25.9z"/><path class="cls-6" d="M107.75 123.22h3.74v2.49h-3.74z"/><path class="cls-7 cls-5" d="M157.54 86.91a26 26 0 0 0-32.36-25.39 25.83 25.83 0 0 0-19.56 25.39c0 14.45 10.35 24.92 10.35 37.39v15.16h26.67V125.2h7.49c4.13 0 6.78-4.25 6.78-8.38v-11.47h6.82v-2.24z"/><path class="cls-6" d="M138.9 123.22h3.74v2.49h-3.74z"/><g class="cls-7"><path class="cls-6" d="M143.89 139.42h-2.49v-15a1.25 1.25 0 0 1 1.25-1.25h7.48a6.24 6.24 0 0 0 6.23-6.23v-11.17a1.25 1.25 0 0 1 1.25-1.25h5v-1l-6.15-16a1.24 1.24 0 0 1-.08-.45 24.93 24.93 0 1 0-49.85 0c0 7.25 2.63 13.54 5.17 19.62 2.47 5.92 4.8 11.51 4.8 17.76v15H114v-15c0-5.75-2.24-11.12-4.61-16.8-2.63-6.31-5.36-12.84-5.36-20.58a27.42 27.42 0 0 1 54.84-.23l6.15 16a1.22 1.22 0 0 1 .08.45v2.49a1.25 1.25 0 0 1-1.25 1.25h-5v10a8.73 8.73 0 0 1-8.72 8.72h-6.23z"/><path class="cls-8" d="M139.09 90a2.92 2.92 0 1 1 .67-5.75 13.56 13.56 0 0 0-1.9-4.58 2.92 2.92 0 1 1-4-4 13.51 13.51 0 0 0-4.58-1.9 2.88 2.88 0 0 1 .09.67 2.92 2.92 0 1 1-5.84 0 2.88 2.88 0 0 1 .09-.67 13.51 13.51 0 0 0-4.58 1.9 2.9 2.9 0 0 1 .53 4.54 2.92 2.92 0 0 1-4.13 0 3 3 0 0 1-.41-.53 13.56 13.56 0 0 0-1.9 4.58 2.92 2.92 0 1 1 .67 5.75 2.84 2.84 0 0 1-.67-.09 13.54 13.54 0 0 0 1.9 4.58 3 3 0 0 1 .41-.53 2.92 2.92 0 1 1 4.13 4.13 2.91 2.91 0 0 1-.53.41 13.53 13.53 0 0 0 4.58 1.9 2.92 2.92 0 1 1 5.67 0 13.53 13.53 0 0 0 4.58-1.9 2.92 2.92 0 1 1 3.6-4.54 3 3 0 0 1 .41.53 13.54 13.54 0 0 0 1.9-4.58 2.84 2.84 0 0 1-.67.09"/><path class="cls-8" d="M126.44 95.56a4.17 4.17 0 0 1 4.05 3.21 12 12 0 0 0 1.35-.56 4.17 4.17 0 0 1 .6-5.13 4.26 4.26 0 0 1 5.13-.6 12.31 12.31 0 0 0 .56-1.34 4.17 4.17 0 0 1 0-8.11 12.21 12.21 0 0 0-.56-1.34 4.26 4.26 0 0 1-5.13-.6 4.18 4.18 0 0 1-.6-5.14 12 12 0 0 0-1.35-.56 4.17 4.17 0 0 1-8.11 0 12 12 0 0 0-1.34.56 4.18 4.18 0 0 1-.6 5.13 4.26 4.26 0 0 1-5.13.6 12.29 12.29 0 0 0-.56 1.34 4.17 4.17 0 0 1 0 8.11 12 12 0 0 0 .56 1.35 4.32 4.32 0 0 1 5.2.53 4.07 4.07 0 0 1 1.19 2.91 4.37 4.37 0 0 1-.66 2.29 12 12 0 0 0 1.34.56 4.17 4.17 0 0 1 4.05-3.21m2.83 6.09a1.25 1.25 0 0 1-1.21-1.54 1.65 1.65 0 0 0 .05-.38 1.67 1.67 0 1 0-3.35 0 1.65 1.65 0 0 0 .05.38 1.25 1.25 0 0 1-1.47 1.51 14.76 14.76 0 0 1-5-2.08 1.25 1.25 0 0 1 0-2.1 1.71 1.71 0 0 0 .31-.24 1.83 1.83 0 0 0 .52-1.29 1.6 1.6 0 0 0-.46-1.14 1.81 1.81 0 0 0-2.44.07 2.25 2.25 0 0 0-.23.34 1.27 1.27 0 0 1-1 .62 1.28 1.28 0 0 1-1-.6 14.86 14.86 0 0 1-2.08-5 1.26 1.26 0 0 1 .35-1.16 1.24 1.24 0 0 1 1.16-.32 1.62 1.62 0 0 0 .38 0 1.67 1.67 0 1 0-.38-3.3A1.25 1.25 0 0 1 111.9 84a14.78 14.78 0 0 1 2.1-5 1.16 1.16 0 0 1 1.06-.57 1.25 1.25 0 0 1 1 .59 1.74 1.74 0 0 0 .24.31 1.72 1.72 0 0 0 2.36 0 1.68 1.68 0 0 0 0-2.37 1.71 1.71 0 0 0-.31-.24 1.25 1.25 0 0 1 0-2.1 14.76 14.76 0 0 1 5-2.08 1.26 1.26 0 0 1 1.15.35 1.24 1.24 0 0 1 .32 1.16 1.65 1.65 0 0 0-.05.38 1.67 1.67 0 1 0 3.35 0 1.65 1.65 0 0 0-.05-.38 1.24 1.24 0 0 1 .32-1.16 1.26 1.26 0 0 1 1.15-.35 14.75 14.75 0 0 1 5 2.08 1.25 1.25 0 0 1 0 2.1 1.65 1.65 0 0 0-.31 2.6 1.72 1.72 0 0 0 2.37 0 1.75 1.75 0 0 0 .24-.31 1.25 1.25 0 0 1 1-.59 1.17 1.17 0 0 1 1.06.57A14.76 14.76 0 0 1 141 84a1.25 1.25 0 0 1-1.51 1.47 1.67 1.67 0 1 0 0 3.24 1.25 1.25 0 0 1 1.51 1.45 14.76 14.76 0 0 1-2.08 5 1.31 1.31 0 0 1-1.06.57 1.25 1.25 0 0 1-1-.59 1.75 1.75 0 0 0-.24-.31 1.72 1.72 0 0 0-2.37 0 1.68 1.68 0 0 0 0 2.37 1.72 1.72 0 0 0 .31.24 1.25 1.25 0 0 1 0 2.1 14.75 14.75 0 0 1-5 2.08h-.26"/><path class="cls-5" d="M131.43 87.07a5 5 0 1 1-5-5 5 5 0 0 1 5 5"/></g><path class="cls-6" d="M118.96 59.66h11.78v2.4h-11.78zM123.9 0h2.48v9.92h-2.48zM123.9 188.56h2.48v9.92h-2.48zM25.9 98h9.92v2.48H25.9zM214.45 98h9.92v2.48h-9.92z"/><path class="cls-6" transform="rotate(-45 191.806 32.581)" d="M186.84 31.34h9.92v2.48h-9.92z"/><path class="cls-6" transform="rotate(-45 58.477 165.898)" d="M53.51 164.66h9.92v2.48h-9.92z"/><path class="cls-6" transform="rotate(-45 58.475 32.579)" d="M57.23 27.61h2.48v9.92h-2.48z"/><path class="cls-6" transform="rotate(-45 191.808 165.9)" d="M190.56 160.94h2.48v9.92h-2.48z"/><path class="cls-1" d="M25.9 0h198.48v198.48H25.9z"/><path class="cls-9" d="M124.63 223.89c6 0 10.41-6.94 5.61-13.25-6.31-4.81-13.26-.42-13.26 5.6a7.65 7.65 0 0 0 7.65 7.65M242.63 106.29c6 0 10.41-6.94 5.61-13.25-6.31-4.81-13.26-.42-13.26 5.6a7.65 7.65 0 0 0 7.65 7.65M7.65 106.29c6 0 10.41-6.94 5.61-13.25C6.95 88.23 0 92.62 0 98.64a7.65 7.65 0 0 0 7.65 7.65"/></g></g></svg>