<svg xmlns="http://www.w3.org/2000/svg" viewBox="0 0 320 422.04"><defs><style>.cls-1{fill:#dd016b}.cls-2{fill:#00aeef}.cls-3{fill:#d3dbdd}.cls-4{fill:#56cbcd}.cls-5{fill:#7f0aa9}</style></defs><title>block2_3</title><g id="Слой_2" data-name="Слой 2"><g id="Layer_3" data-name="Layer 3"><path class="cls-1" d="M66.53 2.72h250v136.52h-250z"/><path d="M314.91 144H66.53a4.78 4.78 0 0 1-4.78-4.78V5.51A4.78 4.78 0 0 1 66.53.73h248.38a4.78 4.78 0 0 1 4.78 4.78v133.74a4.78 4.78 0 0 1-4.78 4.75zM66 139.25h249.4V4.51H66z"/><path d="M226.53 72.38l90-64.62a2.78 2.78 0 0 0-1.62-5 2.73 2.73 0 0 0-1.61.52l-93.15 66.84-18.63 13.37a20.16 20.16 0 0 1-21.61 0l-18.62-13.37L68.15 3.25a2.77 2.77 0 0 0-3.87.63 2.78 2.78 0 0 0 .64 3.87l90 64.62L64.91 137a2.78 2.78 0 1 0 3.24 4.51l91.52-65.71 17 12.21a25.49 25.49 0 0 0 28.08 0l17-12.21 91.52 65.71a2.78 2.78 0 1 0 3.24-4.51z"/><path class="cls-2" d="M70.48 0zM61.02 1.56v-.01.01z"/><path class="cls-3" d="M256 390V102H32v288s0 32 32 32h224c-32.12 0-32-32-32-32z"/><path class="cls-4" d="M256 150v240s-.12 32 32 32 32-32 32-32V150z"/><path d="M0 147.79h144v4H0zM0 163.79h47.5v4H0zM0 195.79h160.5v4H0zM0 211.79h160.5v4H0zM0 227.79h160.5v4H0zM0 243.79h160.5v4H0zM0 276.04h160.5v4H0zM0 292.04h160.5v4H0zM0 308.04h160.5v4H0zM0 324.04h160.5v4H0zM0 340.04h160.5v4H0zM0 356.04h160.5v4H0zM0 372.04h80.75v4H0zM0 388.04h80.75v4H0zM64 163.79h31.5v4H64z"/><path class="cls-5" d="M176 197.29h49v49h-49zM0 118.04h143.5v15.5H0z"/><path d="M129.25 391.54H110.5v-18.75h18.75zm-14.75-4h10.75v-10.75H114.5zM162.5 392h-19v-19h19zm-15-4h11v-11h-11zM225.5 328.54H175v-69h50.5zm-46.5-4h42.5v-61H179zM226 359h-52v-19h52zm-48-4h44v-11h-44zM225.5 392H174v-19.21h51.5zm-47.5-4h43.5v-11.21H178zM176.5 116.04h47v4h-47zM176.5 131.54h47v4h-47zM176.5 147.79h47v4h-47z"/></g></g></svg>