<svg xmlns="http://www.w3.org/2000/svg" viewBox="0 0 361 319"><defs><style>.cls-1{fill:none;stroke:#000;stroke-miterlimit:10;stroke-width:5px}.cls-2{fill:#56cbcd}.cls-3{fill:#fff}.cls-4{fill:#dd016b}.cls-5{clip-path:url(#clip-path)}.cls-6{fill:#7f0aa9}.cls-7{fill:#141515}</style><clipPath id="clip-path"><circle class="cls-1" cx="170.13" cy="159.5" r="86.02"/></clipPath></defs><title>block2_4</title><g id="Слой_2" data-name="Слой 2"><g id="Layer_3" data-name="Layer 3"><circle class="cls-2" cx="170.13" cy="159.5" r="159.5"/><circle class="cls-3" cx="170.13" cy="159.5" r="125.02"/><ellipse class="cls-4" cx="197.5" cy="124.83" rx="4.38" ry="7.35"/><g class="cls-5"><path d="M213.68 171.66l-19.11-9.55c-2.36-1.06-5.77-3.45-5.77-5v-8.25a33.32 33.32 0 0 0 6-13.4 9.6 9.6 0 0 0 8.42-9.51v-4.79a7.17 7.17 0 0 0-2.4-5.34v-9a24 24 0 0 0-24-24h-9.59a24 24 0 0 0-24 24h4.79a19.19 19.19 0 0 1 19.21-19.22h9.59A19.19 19.19 0 0 1 196 106.78V114h-.32a9.59 9.59 0 0 0-9.27-7.19h-13.59l-9.59-7.19h-8v7.49a9.62 9.62 0 0 0-6.89 6.89h-.3a7.2 7.2 0 0 0-7.19 7.19v4.79a9.6 9.6 0 0 0 8.42 9.51 33.32 33.32 0 0 0 6 13.4v8.25c0 1.41-3 3.77-5.87 5l-19 9.51c-13 4.35-27.84 11.55-27.84 28.58v35.95h4.79v-35.94c0-11.11 7.39-18.31 24.72-24.09l18.6-9.28c2 14.19 19.52 23.13 20.31 23.53l1.07.54 1.07-.54c.79-.4 18.34-9.34 20.31-23.52l18.26 9.12.31.13c17.33 5.78 24.72 13 24.72 24.09v35.95h4.79v-35.93c.01-17.04-14.83-24.24-27.83-28.58zm-15.3-45.71a4.79 4.79 0 0 1-2.77 4.33 59.88 59.88 0 0 0 .37-6.73v-4.79a2.4 2.4 0 0 1 2.4 2.4zm-52.72 0v-4.79a2.4 2.4 0 0 1 2.4-2.4v4.79a59.9 59.9 0 0 0 .37 6.73 4.79 4.79 0 0 1-2.77-4.33zm7.19-9.59a4.8 4.8 0 0 1 4.79-4.79H160v-7.19h1.6l9.59 7.19h15.21a4.8 4.8 0 0 1 4.79 4.79v7.19a51.79 51.79 0 0 1-1 10.08l-.12-.24-14.38 7.19 2.14 4.29 10.68-5.34c-2.79 7.36-8 12.78-16.55 12.78-14.14 0-19.17-14.86-19.17-28.76zM172 185.53c-3.86-2.19-16.77-10.34-16.77-21.24 2.33-1.65 4.79-4.11 4.79-7.19v-3.66a21.45 21.45 0 0 0 24 0v3.66c0 3.09 2.48 5.56 4.79 7.2-.02 10.87-12.94 19.04-16.81 21.23z"/><path d="M126.49 209.83h4.79v26.36h-4.79zM212.76 209.83h4.79v26.36h-4.79zM169.63 200.24h4.79v4.79h-4.79zM169.63 209.83h4.79v4.79h-4.79z"/></g><circle class="cls-1" cx="170.13" cy="159.5" r="86.02"/><circle class="cls-4" cx="176.64" cy="141.52" r="4.54"/><circle class="cls-3" cx="319.28" cy="49.11" r="39.91"/><circle class="cls-3" cx="50.27" cy="263.46" r="47.44"/><path d="M319.38 90.83A41.63 41.63 0 1 1 361 49.2a41.67 41.67 0 0 1-41.62 41.63zm0-79.25A37.63 37.63 0 1 0 357 49.2a37.67 37.67 0 0 0-37.62-37.62z"/><path class="cls-6" d="M303.5 29.2h31.75v4H303.5zM303.5 41.2h31.75v4H303.5zM303.5 53.2h31.75v4H303.5zM311.5 65.2h15.75v4H311.5z"/><path d="M79.93 248v31.25a4.92 4.92 0 0 1-4.93 4.89H24.23a4.92 4.92 0 0 1-4.91-4.92V248a4.92 4.92 0 0 1 4.91-5H75a4.92 4.92 0 0 1 4.93 5zm-59.21 31.22a3.51 3.51 0 0 0 3.51 3.52H75a3.51 3.51 0 0 0 3.51-3.52V248a3.51 3.51 0 0 0-3.51-3.55H24.23a3.51 3.51 0 0 0-3.51 3.55z"/><path d="M79.93 248h-1v31.25a3.92 3.92 0 0 1-3.93 3.89H24.23a3.92 3.92 0 0 1-3.91-3.92V248a3.92 3.92 0 0 1 3.91-4H75a3.92 3.92 0 0 1 3.93 4h2a5.92 5.92 0 0 0-5.93-6H24.23a5.92 5.92 0 0 0-5.91 6v31.25a5.92 5.92 0 0 0 5.91 5.92H75a5.92 5.92 0 0 0 5.91-5.92V248zm-59.21 31.22h-1a4.51 4.51 0 0 0 4.51 4.52H75a4.51 4.51 0 0 0 4.51-4.52V248a4.51 4.51 0 0 0-4.51-4.55H24.23a4.51 4.51 0 0 0-4.51 4.55v31.25h2V248a2.51 2.51 0 0 1 2.51-2.52H75a2.51 2.51 0 0 1 2.53 2.52v31.25a2.51 2.51 0 0 1-2.53 2.48H24.23a2.51 2.51 0 0 1-2.51-2.52z"/><path d="M71.25 243.75h1.4v39.68h-1.4z"/><path d="M72.66 243.75h-1v38.69h-.41v1h1v-38.69h.41v-1h-1 1v-1h-2.41v41.69h3.41v-41.69h-1v1z"/><path d="M77.32 264.12a1.93 1.93 0 1 1-1.93-1.93 1.93 1.93 0 0 1 1.93 1.93zm-2.46 0a.53.53 0 1 0 .53-.53.53.53 0 0 0-.53.53z"/><path d="M77.32 264.12h-1a.93.93 0 1 1-.93-.93.94.94 0 0 1 .93.93h2a2.93 2.93 0 1 0-2.93 2.93 2.93 2.93 0 0 0 2.93-2.93zm-2.46 0h-1a1.53 1.53 0 1 0 1.53-1.53 1.53 1.53 0 0 0-1.53 1.53h1.53v.47a.47.47 0 0 0 .47-.47h-.94a.47.47 0 0 0 .47.47v-.94a.47.47 0 0 0-.47.47h.94a.47.47 0 0 0-.47-.47v.47h-.53z"/><path d="M49.63 313.22a49.63 49.63 0 1 1 49.63-49.62 49.68 49.68 0 0 1-49.63 49.62zm0-95.25a45.62 45.62 0 1 0 45.63 45.62A45.68 45.68 0 0 0 49.63 218z"/><path class="cls-4" d="M25.96 251.57h40v25.33h-40z"/><path class="cls-7" transform="rotate(-89.91 298.26 159.551)" d="M296.34 151.21h3.86v16.67h-3.86z"/><path class="cls-7" transform="rotate(-89.91 173.533 34.41)" d="M165.21 32.48h16.67v3.86h-16.67z"/><path class="cls-7" transform="rotate(-90 172.755 284.185)" d="M164.8 282.35h16.67v3.86H164.8z"/><path class="cls-7" transform="rotate(-44.91 261.507 247.811)" d="M259.61 239.49h3.85v16.67h-3.85z"/><path class="cls-7" transform="rotate(-44.91 261.801 71.147)" d="M253.49 69.22h16.67v3.85h-16.67z"/><path class="cls-7" transform="rotate(-67.64 288.86 206.865)" d="M286.95 198.53h3.85v16.67h-3.85z"/><path class="cls-7" transform="rotate(-67.64 220.875 43.791)" d="M212.53 41.87h16.67v3.86h-16.67z"/><path class="cls-7" transform="rotate(-22.63 221.393 274.613)" d="M219.5 266.31h3.86v16.67h-3.86z"/><path class="cls-7" transform="rotate(-22.64 288.712 111.258)" d="M280.31 109.32h16.67v3.86h-16.67z"/></g></g></svg>