<svg xmlns="http://www.w3.org/2000/svg" viewBox="0 0 320 335.04"><defs><style>.cls-1{fill:#dd016b}.cls-2{fill:#56cbcd}.cls-3{fill:#bac4c6}.cls-4{fill:#d3dbdd}.cls-5{fill:#30241c}.cls-6{fill:#fff}.cls-7{fill:#7f0aa9}</style></defs><title>block2_5</title><g id="Слой_2" data-name="Слой 2"><g id="Layer_3" data-name="Layer 3"><circle class="cls-1" cx="160" cy="159.5" r="159.5"/><path class="cls-2" d="M320 61.59a12 12 0 0 0-12-12H12a12 12 0 0 0-12 12v171.5h320z"/><path class="cls-3" d="M208 306.59h-96l16.5-49H192l16 49z"/><path class="cls-4" d="M12 257.59h296a12 12 0 0 0 12-12v-12.5H0v12.5a12 12 0 0 0 12 12z"/><path class="cls-5" d="M152.5 243.34h15v4h-15z"/><path class="cls-6" d="M47.67 64.93H160v161H47.67z"/><path class="cls-4" d="M159.86 64.93h112.33v161H159.86z"/><path class="cls-7" d="M292.67 123.59h-36.34v-26h36.34l-9.34 12.67 9.34 13.33z"/><path class="cls-5" d="M157.86 228.64V63.45L258 32.54v165.18zm4-162.23v156.81L254 194.77V38z"/><path class="cls-5" d="M157.86 229.89v-166l68-50.29v166zm4-164V222l60-44.37v-156zM64.5 79.59h31v4h-31zM64.5 207.59h15.25v4H64.5zM64.5 95.59H144v4H64.5zM64.5 111.59H144v4H64.5zM64.5 127.59H144v4H64.5z"/><path class="cls-7" d="M59.33 169.93h53.33v14.67H59.33z"/><path class="cls-5" d="M64.5 143.59H144v4H64.5zM64.5 159.59H144v4H64.5zM64.5 175.59H144v4H64.5z"/><path class="cls-6" d="M240.73 326.73l-33.15-77.59 77.58 33.15-16.45 16.46 22.22 22.22-11.25 11.24L257.46 310l-16.73 16.73z"/><path class="cls-5" d="M279.68 335l-22.22-22.22-17.41 17.41-36.27-84.89 84.89 36.27-17.14 17.14L293.75 321zm-22.22-27.87l22.22 22.22 8.42-8.35-22.22-22.22L281.66 283l-70.28-30 30 70.29z"/></g></g></svg>