<svg xmlns="http://www.w3.org/2000/svg" viewBox="0 0 211.69 211.69"><defs><style>.cls-1{fill:none}.cls-2{clip-path:url(#clip-path)}.cls-3{fill:#d4dbde}.cls-4{fill:#57cccc}.cls-5{fill:#3bb0cc}.cls-6{fill:#de006b}.cls-7{fill:#fff}.cls-8{clip-path:url(#clip-path-4)}.cls-9{fill:#800aa8}.cls-10{fill:#141414}</style><clipPath id="clip-path"><path class="cls-1" d="M0 0h211.69v211.69H0z"/></clipPath><clipPath id="clip-path-4"><path class="cls-1" d="M3.19 178.95a26.25 26.25 0 1 0 26.25-26.25 26.25 26.25 0 0 0-26.25 26.25"/></clipPath></defs><title>block2_7</title><g id="Слой_2" data-name="Слой 2"><g id="Layer_3" data-name="Layer 3"><g class="cls-2"><path class="cls-3" d="M25.46 100.88A105.39 105.39 0 0 1 205.87 138a105.35 105.35 0 1 0-201 0 105.19 105.19 0 0 1 20.63-37.08"/><path class="cls-4" d="M111.32 91.36L96.18 105l-12.84-2.8-.66-9.2-5.93-9.55 5.93-9.55 20.74 3.29 16.79.33 8.89 8.89zM134 179.59l2-16.79 7.57-11.85 17.12 3.29 10.88-5.24s-1.32-13.17-2.3-13.17-19.42-3-19.42-3l8.89-14.16L171.9 121l8.89-3.29 5.93 11.52 8.89-4.94-3-12.18.73-.45a105.35 105.35 0 0 0-167.88-10.78l4.54 9.57 5.6 2.63 7.24-5.27 4.61-9.55L54 95l10.9 3.27 5.27 9.22-11.52 16.79 3.29 13.5 15.14.66L87 127.9l7.9 5.93-.33 12.51s-8.89 9.22-9.88 9.55-14.49 9.55-14.49 9.55l-10.86-7.57-3.95 8.56 9.22 7.24 6.58 9.55-6.91 14.16s-2.52 1.19-6.66 2.89a105.51 105.51 0 0 0 96.4-.45l-.19-.08z"/><path class="cls-5" d="M71.16 183.21l-6.58-9.55-9.22-7.24 3.95-8.56 10.86 7.57s13.5-9.22 14.49-9.55 9.88-9.55 9.88-9.55l.33-12.51L87 127.9l-9.88 10.53-15.14-.66-3.29-13.5 11.52-16.79-5.31-9.21L54 95l-6.59 3.29-4.61 9.55-7.24 5.27-5.56-2.66-4.55-9.58A105.2 105.2 0 0 0 4.83 138a105.65 105.65 0 0 0 52.75 62.31c4.14-1.7 6.66-2.89 6.66-2.89z"/></g><path class="cls-5" d="M103.42 77.2l-20.74-3.29-5.93 9.55L82.68 93l.66 9.22 12.84 2.8 15.14-13.66 17.78-4.94-8.89-8.89-16.79-.33z"/><g class="cls-2"><path class="cls-5" d="M192.64 112.1l3 12.18-8.89 4.94-5.93-11.52-8.92 3.3-13.17-2.31-8.89 14.16s18.44 3 19.42 3 2.3 13.17 2.3 13.17l-10.86 5.27-17.12-3.29-7.58 11.8-2 16.79 19.75 20.14.19.08A105.64 105.64 0 0 0 205.87 138a105 105 0 0 0-12.5-26.3z"/><path class="cls-6" d="M121.06 43.13c0 8.73-15.8 36.87-15.8 36.87s-15.8-28.14-15.8-36.87a15.8 15.8 0 1 1 31.6 0"/><path class="cls-7" d="M114.46 43.13a9.2 9.2 0 1 1-9.2-9.2 9.2 9.2 0 0 1 9.2 9.2"/><path d="M69.19 127.65h-1.32a1.32 1.32 0 0 1 0-2.63h1.33a1.32 1.32 0 0 1 0 2.63m-11.85.35a1.32 1.32 0 0 1-.09-2.63l1.33-.09a1.32 1.32 0 1 1 .17 2.63l-1.3.09h-.1m22.36.2h-.12l-1.3-.11a1.32 1.32 0 0 1 .22-2.63l1.33.12a1.32 1.32 0 0 1-.12 2.63m-32.83.94a1.32 1.32 0 0 1-.19-2.62l1.32-.18a1.32 1.32 0 0 1 .35 2.61l-1.29.18h-.19m43.26.49h-.23l-1.28-.22a1.32 1.32 0 0 1 .44-2.6l1.31.23a1.32 1.32 0 0 1-.23 2.61M36.5 131a1.32 1.32 0 0 1-.27-2.61l1.3-.27a1.32 1.32 0 0 1 .52 2.58l-1.28.26h-.27m63.9 1a1.34 1.34 0 0 1-.35 0l-1.26-.34a1.32 1.32 0 1 1 .66-2.55l1.29.34a1.32 1.32 0 0 1-.35 2.59m10 3.22a1.32 1.32 0 0 1-.46-.08l-1.22-.45a1.32 1.32 0 1 1 .89-2.48l1.25.46a1.32 1.32 0 0 1-.46 2.55m9.7 4.11a1.31 1.31 0 0 1-.57-.13l-1.18-.56a1.32 1.32 0 0 1 1.11-2.39l1.2.57a1.32 1.32 0 0 1-.57 2.5m9.28 5a1.3 1.3 0 0 1-.67-.19l-1.12-.66a1.32 1.32 0 0 1 1.32-2.28l1.15.68a1.32 1.32 0 0 1-.68 2.45m8.78 5.82a1.31 1.31 0 0 1-.78-.25l-1.05-.76a1.32 1.32 0 0 1 1.53-2.14l1.08.78a1.32 1.32 0 0 1-.78 2.38m8.18 6.64a1.31 1.31 0 0 1-.88-.34l-1-.86a1.32 1.32 0 0 1 1.74-2l1 .89a1.32 1.32 0 0 1-.88 2.3m7.37 7.56a1.31 1.31 0 0 1-1-.5s-.28-.36-.81-1a1.32 1.32 0 0 1 2-1.73c.6.69.9 1.07.9 1.07a1.32 1.32 0 0 1-1 2.13M103.53 82.43H102.21a1.32 1.32 0 0 1 0-2.63h1.4a1.32 1.32 0 0 1-.08 2.63m-11.8 1a1.32 1.32 0 0 1-.24-2.61l1.32-.23a1.32 1.32 0 1 1 .43 2.6l-1.24.26h-.24m-10.22 2.69a1.32 1.32 0 0 1-.42-2.56l1.27-.42a1.32 1.32 0 1 1 .8 2.51l-1.19.4a1.3 1.3 0 0 1-.42.07m-9.76 4.06a1.32 1.32 0 0 1-.59-2.49l1.2-.59a1.32 1.32 0 0 1 1.14 2.37l-1.16.57a1.31 1.31 0 0 1-.59.14m-9.06 5.36a1.32 1.32 0 0 1-.75-2.4l1.11-.75a1.32 1.32 0 1 1 1.45 2.2l-1.07.72a1.31 1.31 0 0 1-.74.23m-8.27 6.52a1.32 1.32 0 0 1-.88-2.3l1-.89a1.32 1.32 0 0 1 1.73 2l-1 .86a1.31 1.31 0 0 1-.88.34m-7.38 7.51a1.32 1.32 0 0 1-1-2.18l.89-1a1.32 1.32 0 0 1 2 1.76l-.86 1a1.31 1.31 0 0 1-1 .45m-6.45 8.32a1.32 1.32 0 0 1-1.08-2.07l.77-1.09a1.32 1.32 0 1 1 2.15 1.53l-.75 1.06a1.32 1.32 0 0 1-1.09.57M35.61 126a1.32 1.32 0 0 1-1.15-2l.17-.3a1.32 1.32 0 1 1 2.29 1.3l-.16.29a1.32 1.32 0 0 1-1.15.67"/><path class="cls-6" d="M51.41 91.19c0 8.73-15.8 36.87-15.8 36.87S19.8 99.92 19.8 91.19a15.8 15.8 0 1 1 31.61 0"/><path class="cls-7" d="M44.81 91.19a9.2 9.2 0 1 1-9.2-9.2 9.2 9.2 0 0 1 9.2 9.2"/><path class="cls-6" d="M173.83 127.42c0 8.73-15.8 36.87-15.8 36.87s-15.8-28.15-15.8-36.87a15.8 15.8 0 1 1 31.61 0"/><path class="cls-7" d="M167.23 127.42a9.2 9.2 0 1 1-9.2-9.2 9.2 9.2 0 0 1 9.2 9.2M69.66 58.44a2.14 2.14 0 1 0-2.14 2.14 2.14 2.14 0 0 0 2.14-2.14M197.74 75.06a2.14 2.14 0 1 0-2.14 2.14 2.14 2.14 0 0 0 2.14-2.14M82.35 18.76a2.14 2.14 0 1 0-2.14 2.14 2.14 2.14 0 0 0 2.14-2.14M26.23 64.2a5.08 5.08 0 1 0-5.08 5.08 5.08 5.08 0 0 0 5.08-5.08M142.22 25.27a5.08 5.08 0 1 0-5.08 5.08 5.08 5.08 0 0 0 5.08-5.08M163.27 69.25a3.31 3.31 0 1 0-3.27 3.31 3.31 3.31 0 0 0 3.31-3.31"/><path d="M179 2.63a30 30 0 1 0 30 30 30.07 30.07 0 0 0-30-30m0 62.72a32.67 32.67 0 1 1 32.68-32.67A32.71 32.71 0 0 1 179 65.35"/></g><path d="M161.27 41.75h35.48V21h-35.48zm38.11 2.63h-40.74v-26h40.75z"/><path d="M161.27 41.75h35.48v-3.2h-35.48zm38.11 2.63h-40.74v-8.46h40.75z"/><path d="M173.87 48h11.56l-1.57-3.64h-8.43zm15.56 2.63h-19.57l3.84-8.9h11.9z"/><path class="cls-2 cls-7" d="M55.7 178.95a26.25 26.25 0 1 0-26.26 26.25 26.25 26.25 0 0 0 26.26-26.25"/><g class="cls-8"><path class="cls-9" d="M26.33 192.66l3.11 12.54h-16.2l.32-9.93 9.35-4.63 3.42 2.02z"/><path class="cls-10" d="M21.65 172.13c-1 0-1.7-.05-1.79-.06a1.32 1.32 0 0 1 .21-2.62c.08 0 7.83.59 11.94-2.58l1.08-3.48c-.09-.24-.66-.92-2.52-1.6-2.63-1-6.69-.64-8.67 1.55a1.32 1.32 0 0 1-2-1.77c2.75-3 8-3.53 11.52-2.25 5 1.83 4.27 4.47 4.16 4.77L34.41 168a1.32 1.32 0 0 1-.4.61c-3.6 3.07-9.42 3.49-12.35 3.49"/><path class="cls-10" d="M34.92 166.4a7.35 7.35 0 0 1 2.72 1 3.3 3.3 0 0 0-.43-.93 3.37 3.37 0 0 0-1.91-1.3zm4 5.61a1.32 1.32 0 0 1-1.18-.73 4.36 4.36 0 0 0-4.09-2.35h-.35a1.32 1.32 0 0 1-1.41-1.7l1.25-4a1.32 1.32 0 0 1 1.42-.91 6.43 6.43 0 0 1 4.86 2.68c1.71 2.58.79 5.9.75 6a1.32 1.32 0 0 1-1.17 1z"/><path class="cls-10" d="M29.44 187.15h-.27c-.31-.07-7.52-1.66-9-6.67a49 49 0 0 1-1.55-9.63 1.32 1.32 0 0 1 2.63-.13 47 47 0 0 0 1.45 9c.8 2.77 4.88 4.31 6.71 4.76 1.83-.46 5.92-2 6.71-4.76a47 47 0 0 0 1.45-9 1.32 1.32 0 0 1 2.63.13 49 49 0 0 1-1.55 9.63c-1.44 5-8.66 6.61-9 6.67h-.27"/><path class="cls-10" d="M20.93 179.23a1.31 1.31 0 0 1-.64-.16c-1.88-1-4.76-3.56-3.59-6.41a3 3 0 0 1 3.72-2l-.91 2.47h.06c-.2 0-.38.34-.44.5-.48 1.18 1.83 2.77 2.43 3.1a1.32 1.32 0 0 1-.64 2.47M38 179.23a1.32 1.32 0 0 1-.64-2.47c.94-.53 2.87-2 2.43-3.1-.19-.46-.38-.52-.38-.52a1.32 1.32 0 1 1-.91-2.47 3 3 0 0 1 3.72 2c1.17 2.84-1.71 5.36-3.59 6.41a1.31 1.31 0 0 1-.64.16M24.64 190.13l2.81 1.66.23-.54zm3.43 4.87a1.31 1.31 0 0 1-.67-.18l-5.84-3.46a1.32 1.32 0 0 1 1.34-2.27l.3.18a1.31 1.31 0 0 1-.18-.74l.26-4.78a1.32 1.32 0 0 1 2.63.14l-.21 3.81 4.19 1.55a1.32 1.32 0 0 1 .75 1.75l-1.37 3.19a1.32 1.32 0 0 1-.8.73 1.3 1.3 0 0 1-.41.06"/><path class="cls-9" d="M32.56 192.66l-3.12 12.54h16.2l-.31-9.93-9.35-4.63-3.42 2.02z"/><path class="cls-10" d="M31.2 191.26l.23.54 2.81-1.66zm-.39 3.74a1.3 1.3 0 0 1-.41-.06 1.31 1.31 0 0 1-.8-.73L28.23 191a1.32 1.32 0 0 1 .75-1.75l4.19-1.55-.17-3.79a1.32 1.32 0 0 1 2.63-.15l.26 4.78a1.32 1.32 0 0 1-.18.74l.3-.18a1.32 1.32 0 1 1 1.34 2.27l-5.84 3.46a1.31 1.31 0 0 1-.67.18M24.42 188.57H16.3a1.32 1.32 0 0 1-1.23-.85c0-.1-.89-2.42-1-7.75-.21-8.19 1.83-14.44 6.08-18.57a1.32 1.32 0 1 1 1.85 1.88c-3.7 3.6-5.48 9.19-5.28 16.62a32 32 0 0 0 .63 6h7.11a1.32 1.32 0 1 1 0 2.63"/><path class="cls-10" d="M40.15 188.57H35a1.32 1.32 0 1 1 0-2.63h4.07a21.52 21.52 0 0 0 .31-3.32 18.5 18.5 0 0 0-.66-5.74 1.32 1.32 0 0 1 2.52-.75 21.14 21.14 0 0 1 .77 6.56 16.82 16.82 0 0 1-.68 5 1.32 1.32 0 0 1-1.23.85"/></g><path class="cls-2 cls-10" d="M29.44 154a24.94 24.94 0 1 0 24.94 24.94A25 25 0 0 0 29.44 154m0 52.51A27.57 27.57 0 1 1 57 178.95a27.6 27.6 0 0 1-27.57 27.57"/></g></g></svg>