<svg xmlns="http://www.w3.org/2000/svg" viewBox="0 0 212.6 209.84"><defs><style>.cls-1,.cls-5,.cls-9{fill:none}.cls-2{clip-path:url(#clip-path)}.cls-3{fill:#141414}.cls-4{fill:#57cccc}.cls-5{stroke:#57cccc;stroke-width:7px}.cls-5,.cls-9{stroke-miterlimit:10}.cls-6{fill:#fff}.cls-7{fill:#de006b}.cls-8{fill:#241f21}.cls-9{stroke:#fff}.cls-10{fill:#800aa8}</style><clipPath id="clip-path"><path class="cls-1" d="M0 0h212.6v209.84H0z"/></clipPath></defs><title>block1_6</title><g id="Слой_2" data-name="Слой 2"><g id="Layer_3" data-name="Layer 3"><g class="cls-2"><path class="cls-3" d="M102.17 2.61a1.31 1.31 0 0 1-1.32-1.24A1.3 1.3 0 0 1 102.12 0h.67a1.29 1.29 0 1 1 .08 2.59H102.17m11.83.22h-.74a1.29 1.29 0 1 1 .18-2.58h.66a1.3 1.3 0 0 1 1.22 1.38 1.31 1.31 0 0 1-1.32 1.2m-23 .8a1.31 1.31 0 0 1-1.3-1.11A1.3 1.3 0 0 1 90.82 1l.66-.09A1.32 1.32 0 0 1 93 2a1.3 1.3 0 0 1-1.12 1.46l-.64.09H91m34.14.57h-.24l-.63-.12a1.29 1.29 0 0 1-1.08-1.49 1.31 1.31 0 0 1 1.52-1.05l.66.12a1.29 1.29 0 0 1 1.06 1.5 1.31 1.31 0 0 1-1.3 1.06M80 5.77a1.32 1.32 0 0 1-1.28-1 1.29 1.29 0 0 1 .95-1.57l.65-.16a1.32 1.32 0 0 1 1.6.94 1.29 1.29 0 0 1-1 1.57l-.63.16a1.33 1.33 0 0 1-.33 0m56 .93a1.35 1.35 0 0 1-.37-.05l-.63-.18a1.29 1.29 0 0 1-.91-1.6 1.32 1.32 0 0 1 1.73-.81l.64.18a1.29 1.29 0 0 1 .9 1.6 1.32 1.32 0 0 1-1.27.93M69.33 9.06a1.32 1.32 0 0 1-1.24-.84 1.28 1.28 0 0 1 .77-1.66l.63-.23a1.33 1.33 0 0 1 1.69.77 1.29 1.29 0 0 1-.79 1.66l-.6.24a1.35 1.35 0 0 1-.46.08m77.3 1.29a1.34 1.34 0 0 1-.5-.1l-.61-.24a1.28 1.28 0 0 1-.72-1.69 1.33 1.33 0 0 1 1.72-.71l.62.25a1.28 1.28 0 0 1 .72 1.69 1.32 1.32 0 0 1-1.22.8m-87.57 3.1a1.32 1.32 0 0 1-1.18-.71 1.28 1.28 0 0 1 .58-1.76l.59-.29a1.33 1.33 0 0 1 1.77.58 1.28 1.28 0 0 1-.6 1.73l-.58.29a1.34 1.34 0 0 1-.59.14m97.68 1.64a1.33 1.33 0 0 1-.63-.16l-.57-.3a1.28 1.28 0 0 1-.54-1.75 1.33 1.33 0 0 1 1.79-.53l.59.31a1.28 1.28 0 0 1 .53 1.75 1.32 1.32 0 0 1-1.16.67m-107.43 3.8a1.32 1.32 0 0 1-1.11-.59 1.28 1.28 0 0 1 .4-1.79l.56-.35a1.34 1.34 0 0 1 1.82.4 1.28 1.28 0 0 1-.41 1.78l-.55.34a1.33 1.33 0 0 1-.71.21m117 2a1.34 1.34 0 0 1-.75-.23l-.54-.36a1.28 1.28 0 0 1-.34-1.8 1.34 1.34 0 0 1 1.83-.34l.55.37a1.28 1.28 0 0 1 .34 1.8 1.33 1.33 0 0 1-1.09.56M40.23 25.3a1.33 1.33 0 0 1-1-.48A1.28 1.28 0 0 1 39.4 23l.52-.41a1.34 1.34 0 0 1 1.85.21 1.28 1.28 0 0 1-.21 1.82l-.51.4a1.33 1.33 0 0 1-.83.29m134.93 2.27a1.33 1.33 0 0 1-.86-.31l-.5-.41a1.27 1.27 0 0 1-.15-1.82 1.34 1.34 0 0 1 1.86-.15l.51.43a1.28 1.28 0 0 1 .14 1.82 1.33 1.33 0 0 1-1 .45M31.87 32.62a1.33 1.33 0 0 1-.93-.38 1.28 1.28 0 0 1 0-1.83l.48-.46a1.34 1.34 0 0 1 1.87 0 1.28 1.28 0 0 1 0 1.83l-.46.45a1.33 1.33 0 0 1-.93.38m151.37 2.54a1.33 1.33 0 0 1-1-.41l-.45-.47a1.28 1.28 0 0 1 0-1.83 1.34 1.34 0 0 1 1.87 0l.46.47a1.28 1.28 0 0 1-.05 1.83 1.33 1.33 0 0 1-.91.35M24.35 40.77a1.33 1.33 0 0 1-.83-.29 1.28 1.28 0 0 1-.19-1.82l.42-.51a1.34 1.34 0 0 1 1.86-.15 1.27 1.27 0 0 1 .18 1.82l-.41.49a1.33 1.33 0 0 1-1 .48m166.13 2.79a1.33 1.33 0 0 1-1.05-.51l-.39-.5a1.28 1.28 0 0 1 .24-1.81 1.34 1.34 0 0 1 1.85.23l.41.52a1.28 1.28 0 0 1-.26 1.81 1.34 1.34 0 0 1-.8.26M17.75 49.65a1.33 1.33 0 0 1-.72-.21 1.28 1.28 0 0 1-.39-1.79l.36-.55a1.34 1.34 0 0 1 1.83-.37 1.28 1.28 0 0 1 .38 1.79l-.36.54a1.32 1.32 0 0 1-1.11.59m179 3a1.33 1.33 0 0 1-1.13-.63l-.33-.54a1.28 1.28 0 0 1 .43-1.78 1.33 1.33 0 0 1 1.81.43l.35.56a1.28 1.28 0 0 1-.45 1.77 1.33 1.33 0 0 1-.68.18M12.15 59.16a1.34 1.34 0 0 1-.6-.14 1.28 1.28 0 0 1-.55-1.74l.31-.59a1.33 1.33 0 0 1 1.78-.55 1.28 1.28 0 0 1 .56 1.74l-.3.57a1.32 1.32 0 0 1-1.18.71M202 62.34a1.32 1.32 0 0 1-1.2-.75l-.28-.57a1.28 1.28 0 0 1 .63-1.72 1.33 1.33 0 0 1 1.76.62l.28.59a1.28 1.28 0 0 1-.64 1.72 1.35 1.35 0 0 1-.55.12M7.61 69.21a1.35 1.35 0 0 1-.47-.09 1.29 1.29 0 0 1-.76-1.67l.24-.61a1.33 1.33 0 0 1 1.71-.74 1.29 1.29 0 0 1 .76 1.67l-.24.6a1.32 1.32 0 0 1-1.23.83m198.61 3.32a1.32 1.32 0 0 1-1.25-.87l-.21-.61a1.29 1.29 0 0 1 .81-1.65 1.32 1.32 0 0 1 1.68.8l.22.61a1.29 1.29 0 0 1-.82 1.64 1.34 1.34 0 0 1-.43.07m-202 7.14a1.35 1.35 0 0 1-.34 0A1.29 1.29 0 0 1 2.91 78l.17-.63a1.32 1.32 0 0 1 1.62-.87 1.29 1.29 0 0 1 .93 1.58l-.17.62a1.32 1.32 0 0 1-1.28 1m205.07 3.42a1.32 1.32 0 0 1-1.29-1l-.15-.63a1.29 1.29 0 0 1 1-1.55 1.32 1.32 0 0 1 1.58 1l.15.63a1.29 1.29 0 0 1-1 1.55 1.37 1.37 0 0 1-.3 0M1.93 90.42h-.2a1.3 1.3 0 0 1-1.11-1.48l.1-.64a1.32 1.32 0 0 1 1.51-1.08 1.3 1.3 0 0 1 1.1 1.48l-.1.63a1.31 1.31 0 0 1-1.3 1.1"/><path class="cls-4" d="M190.74 104.68c0 45.7-37.81 82.75-84.44 82.75s-84.44-37.05-84.44-82.75 37.8-82.75 84.44-82.75 84.44 37.07 84.44 82.75"/><path class="cls-5" d="M209.1 105.66c0 55.6-46 100.67-102.8 100.67S3.5 161.26 3.5 105.66"/><path class="cls-6" d="M173.37 104.68c0 36.3-30 65.73-67.07 65.73S39.23 141 39.23 104.68 69.26 39 106.3 39s67.07 29.43 67.07 65.73"/></g><path class="cls-3" d="M104.73 182.26h2.64v10.34h-2.64zM168.8 167.67l-7.47-7.31 1.87-1.83 7.46 7.31-1.86 1.83zM43.29 167.67l-1.87-1.83 7.47-7.31 1.87 1.83-7.47 7.31zM72.82 186.39l-2.44-.98 4.04-9.56 2.44.99-4.04 9.55zM139.32 186.38l-4.04-9.56 2.43-.99 4.04 9.55-2.43 1zM23.35 139.34l-1.01-2.39 9.75-3.96 1.01 2.39-9.75 3.96zM188.76 139.29l-9.75-3.95 1.01-2.39 9.75 3.95-1.01 2.39z"/><path class="cls-7" d="M104.79 122.32h3.02v2.96h-3.02zM98.74 122.32h3.02v2.96h-3.02zM110.83 122.32h3.02v2.96h-3.02z"/><g class="cls-2"><path class="cls-8" d="M136.43 150.29h-23.91v-2.89h23.91a2.94 2.94 0 0 0 3-2.88v-7.21h3v7.21a5.88 5.88 0 0 1-6 5.77"/><path class="cls-9" d="M136.43 150.29h-23.91v-2.89h23.91a2.94 2.94 0 0 0 3-2.88v-7.21h3v7.21a5.88 5.88 0 0 1-6 5.77z"/><path class="cls-10" d="M112.35 150.46h-9.07a4.49 4.49 0 0 1-4.54-4.46v-1.48a4.49 4.49 0 0 1 4.53-4.44h9.07a4.49 4.49 0 0 1 4.53 4.44V146a4.49 4.49 0 0 1-4.53 4.44"/><path class="cls-8" d="M63.89 117.7h-2.76v-8.62a1.49 1.49 0 0 1 .07-.45l1.38-4.31 2.62.91-1.31 4.09z"/><path class="cls-9" d="M63.89 117.7h-2.76v-8.62a1.49 1.49 0 0 1 .07-.45l1.38-4.31 2.62.91-1.31 4.09z"/><path class="cls-8" d="M151.47 117.7h-2.77v-8.39l-1.31-4.09 2.62-.91 1.38 4.31a1.46 1.46 0 0 1 .07.45z"/><path class="cls-9" d="M151.47 117.7h-2.77v-8.39l-1.31-4.09 2.62-.91 1.38 4.31a1.46 1.46 0 0 1 .07.45z"/><path class="cls-8" d="M146.94 95.48h-3c0-20.24-16.88-36.7-37.63-36.7s-37.64 16.47-37.64 36.7h-3c0-21.86 18.23-39.64 40.64-39.64s40.64 17.78 40.64 39.64"/><path class="cls-9" d="M146.94 95.48h-3c0-20.24-16.88-36.7-37.63-36.7s-37.64 16.47-37.64 36.7h-3c0-21.86 18.23-39.64 40.64-39.64s40.63 17.79 40.63 39.64z"/><path class="cls-8" d="M140.89 95.48h-3c0-17-14.17-30.78-31.59-30.78S74.71 78.51 74.71 95.48h-3c0-18.59 15.52-33.71 34.59-33.71s34.59 15.12 34.59 33.71"/><path class="cls-9" d="M140.89 95.48h-3c0-17-14.17-30.78-31.59-30.78S74.71 78.51 74.71 95.48h-3c0-18.59 15.52-33.71 34.59-33.71s34.59 15.12 34.59 33.71z"/><path class="cls-8" d="M67 97.23a2.87 2.87 0 1 0 2.94 2.87A2.91 2.91 0 0 0 67 97.23m0 8.62a5.75 5.75 0 1 1 5.88-5.75 5.82 5.82 0 0 1-5.88 5.75"/><path class="cls-9" d="M67 97.23a2.87 2.87 0 1 0 2.94 2.87A2.91 2.91 0 0 0 67 97.23zm0 8.62a5.75 5.75 0 1 1 5.88-5.75 5.82 5.82 0 0 1-5.88 5.75z"/><path class="cls-8" d="M145.6 97.23a2.87 2.87 0 1 0 2.94 2.87 2.91 2.91 0 0 0-2.94-2.87m0 8.62a5.75 5.75 0 1 1 5.88-5.75 5.82 5.82 0 0 1-5.88 5.75"/><path class="cls-9" d="M145.6 97.23a2.87 2.87 0 1 0 2.94 2.87 2.91 2.91 0 0 0-2.94-2.87zm0 8.62a5.75 5.75 0 1 1 5.88-5.75 5.82 5.82 0 0 1-5.88 5.75z"/><path class="cls-8" d="M71.37 138.44a13.15 13.15 0 1 1 0-26.31v2.92a10.23 10.23 0 1 0 0 20.46z"/><path class="cls-9" d="M71.37 138.44a13.15 13.15 0 1 1 0-26.31v2.92a10.23 10.23 0 1 0 0 20.46z"/><path class="cls-7" d="M80.6 141.58h-6a4.49 4.49 0 0 1-4.6-4.45v-23.7a4.5 4.5 0 0 1 4.56-4.43h6a4.5 4.5 0 0 1 4.53 4.44v23.7a4.49 4.49 0 0 1-4.53 4.44"/><path class="cls-8" d="M141.23 138.44v-2.92a10.23 10.23 0 1 0 0-20.46v-2.92a13.15 13.15 0 1 1 0 26.31"/><path class="cls-9" d="M141.23 138.44v-2.92a10.23 10.23 0 1 0 0-20.46v-2.92a13.15 13.15 0 1 1 0 26.31z"/><path class="cls-7" d="M138 141.58h-6a4.49 4.49 0 0 1-4.53-4.44v-23.7A4.5 4.5 0 0 1 132 109h6a4.5 4.5 0 0 1 4.53 4.44v23.7a4.49 4.49 0 0 1-4.53 4.44"/></g></g></g></svg>