<svg xmlns="http://www.w3.org/2000/svg" viewBox="0 0 241.7 187.47"><defs><style>.cls-1,.cls-10,.cls-11,.cls-14{fill:none}.cls-2{isolation:isolate}.cls-3{clip-path:url(#clip-path)}.cls-4{fill:#57cccc}.cls-5{fill:#800aa8}.cls-6{fill:#de006b}.cls-7{fill:#141414}.cls-8{mix-blend-mode:multiply}.cls-9{clip-path:url(#clip-path-5)}.cls-10,.cls-11,.cls-14{stroke:#221e1f;stroke-linecap:round;stroke-linejoin:round;stroke-width:3px}.cls-10{stroke-dasharray:0 8.92}.cls-12{clip-path:url(#clip-path-6)}.cls-13{clip-path:url(#clip-path-7)}.cls-14{stroke-dasharray:0 8.24}</style><clipPath id="clip-path"><path class="cls-1" d="M0 0h241.7v187.47H0z"/></clipPath><clipPath id="clip-path-5"><path class="cls-1" d="M188.7 2.3h61.8v29h-61.8z"/></clipPath><clipPath id="clip-path-6"><path class="cls-1" d="M188.7 133.79h61.8v29h-61.8z"/></clipPath><clipPath id="clip-path-7"><path class="cls-1" d="M188.5 81.4h62.2v11h-62.2z"/></clipPath></defs><title>block1_5</title><g class="cls-2"><g id="Слой_2" data-name="Слой 2"><g class="cls-3" id="Layer_3" data-name="Layer 3"><path class="cls-4" d="M104.94 0v50.69h10.13v10.14l8.43-10.14h62.54V0h-81.1z"/><path class="cls-5" d="M69.76 65.38h46.51v46.51H69.76z"/><path class="cls-6" d="M171.11 37.67h5.04v98.36h-5.04z"/><path class="cls-7" d="M117.44 109.62l67.44 26.91V37.76L117.44 67zM187.2 140l-72.09-28.76V65.46l72.09-31.24z"/><path class="cls-6" d="M35.17 74.39h11.34v29.37H35.17z"/><path class="cls-4" d="M0 137.67l18.43 42.24h35.73v-42.24H0z"/><path class="cls-3 cls-7" d="M66.27 178h51.17a4.45 4.45 0 0 0 2.71-8l-.62-.47.2-.75q.16-.57.31-1.16l.21-.84h.86a4.45 4.45 0 0 0 1.47-8.58l-.78-.32.16-2.34h1.09a4.46 4.46 0 0 0 0-8.91h-.36l-1.11.09-.32-2.44.82-.35a4.46 4.46 0 0 0-1.74-8.56H82.17v-7.88c-7.23 4.67-6.63 11.7-6.59 12l.13 1.28h-9.62zm51.17 2.32H64l-.21-41.86h9.48c.1-2.86 1.24-9.77 9.57-14l1.69-.86v9.4h35.85a6.78 6.78 0 0 1 4.81 11.57 6.78 6.78 0 0 1 .42 12.75 6.78 6.78 0 0 1-3.18 11.56 6.78 6.78 0 0 1-5 11.41"/><path class="cls-7" d="M55.33 181.55h8.43v-44.36h-8.43zm10.75 2.33H53v-49h13.08z"/><g class="cls-3"><path class="cls-7" d="M44.18 168.87a1.07 1.07 0 1 0 1.07 1.07 1.07 1.07 0 0 0-1.07-1.07m0 4.46a3.39 3.39 0 1 1 3.39-3.39 3.39 3.39 0 0 1-3.39 3.39M35 168.87a1.07 1.07 0 1 0 1 1.06 1.07 1.07 0 0 0-1-1.06m0 4.46a3.39 3.39 0 1 1 3.39-3.39 3.39 3.39 0 0 1-3.39 3.38M25.68 168.87a1.07 1.07 0 1 0 1.07 1.07 1.07 1.07 0 0 0-1.07-1.07m0 4.46a3.39 3.39 0 1 1 3.39-3.39 3.39 3.39 0 0 1-3.39 3.39"/></g><path class="cls-7" d="M84.49 133h16.66v-20H84.49zm19 2.33H82.17v-24.6h21.32zM84.88 180.3h16.28v4.84H84.88zm-2.33 7.17h20.93V178H82.55zM47.67 107.82H68.6V70.33H47.67zm23.26 2.33H45.35V68h25.58z"/><path class="cls-7" transform="rotate(-45 40.845 81.081)" d="M38.68 79.92H43v2.32h-4.32z"/><path class="cls-7" transform="rotate(-45 40.838 88.644)" d="M38.68 87.48H43v2.32h-4.32z"/><path class="cls-7" transform="rotate(-45 40.835 96.195)" d="M38.68 95.03H43v2.32h-4.32z"/><path class="cls-4" d="M0 14.22v46.51h57.38l7.73 9.31v-9.31h9.31V14.22H0z"/><path class="cls-7" d="M91.66 12.87h2.32v10.05h-2.32zM12.44 92.09h10.05v2.33H12.44zM163.16 92.09h10.05v2.33h-10.05z"/><path class="cls-7" transform="rotate(-45 146.106 39.97)" d="M141.08 38.8h10.05v2.32h-10.05z"/><path class="cls-7" transform="rotate(-45 39.54 146.542)" d="M34.51 145.38h10.05v2.32H34.51z"/><path class="cls-7" transform="rotate(-45 39.534 39.965)" d="M38.38 34.94h2.32v10.05h-2.32z"/><path class="cls-7" transform="rotate(-45 146.117 146.536)" d="M144.95 141.51h2.32v10.05h-2.32z"/><path class="cls-7" transform="rotate(-67.74 121.368 23.515)" d="M116.35 22.35h10.05v2.33h-10.05z"/><path class="cls-7" transform="rotate(-67.74 23.087 64.704)" d="M21.92 59.67h2.33v10.05h-2.33z"/><path class="cls-7" transform="rotate(-67.74 162.552 121.803)" d="M161.4 116.78h2.33v10.05h-2.33z"/><path class="cls-7" transform="rotate(-22.72 162.3 64.117)" d="M157.3 62.97h10.05v2.33H157.3z"/><path class="cls-7" transform="rotate(-22.74 23.329 122.373)" d="M18.3 121.21h10.05v2.33H18.3z"/><path class="cls-7" transform="rotate(-22.74 63.701 23.753)" d="M62.54 18.72h2.33v10.05h-2.33z"/><g class="cls-3"><g class="cls-8 cls-9"><path class="cls-10" d="M207.36 25.2l28.56-12.6"/><path class="cls-11" d="M199.2 28.8"/></g><g class="cls-8 cls-12"><path class="cls-10" d="M231.84 156.69l-28.56-12.6"/><path class="cls-11" d="M240 160.29"/></g><g class="cls-8 cls-13"><path class="cls-14" d="M207.24 89.9h28.84"/><path class="cls-11" d="M199 89.9"/></g></g></g></g></g></svg>