<svg xmlns="http://www.w3.org/2000/svg" viewBox="0 0 212.41 209.84"><defs><style>.cls-1{fill:none}.cls-2{clip-path:url(#clip-path)}.cls-3{fill:#57cccc}.cls-4{fill:#bac4c7}.cls-5{fill:#d4dbde}.cls-6{fill:#fff}.cls-7{fill:#141414}.cls-8{fill:#de006b}.cls-9{clip-path:url(#clip-path-4)}.cls-10{clip-path:url(#clip-path-6)}.cls-11{fill:#800aa8}</style><clipPath id="clip-path"><path class="cls-1" d="M0 0h212.41v209.84H0z"/></clipPath><clipPath id="clip-path-4"><path class="cls-1" d="M148.3 54.6a31.33 31.33 0 1 0 31.33-31.33A31.33 31.33 0 0 0 148.3 54.6"/></clipPath><clipPath id="clip-path-6"><path class="cls-1" d="M17.13 157.43a26.14 26.14 0 1 0 26.14-26.14 26.14 26.14 0 0 0-26.14 26.14"/></clipPath></defs><title>block1_7</title><g id="Слой_2" data-name="Слой 2"><g id="Layer_3" data-name="Layer 3"><g class="cls-2"><path class="cls-3" d="M211.1 105.27A104.57 104.57 0 1 1 106.53.7 104.57 104.57 0 0 1 211.1 105.27"/><path class="cls-4" d="M64.16 209.79s21 0 21-21h126s-.09 21-21 21z"/><path class="cls-5" d="M169.14 188.81V21s-.22-21-21-21H43.4v21h-.22v167.81s.09 21 21 21h126s-21 0-21-21"/><path class="cls-4" d="M148.16 0s-21 0-21 21H1.22s.09-21 21-21z"/></g><path class="cls-6" d="M51.79 35.09h108.83v143.23H51.79z"/><path class="cls-7" d="M76.44 49.42h8.22v2.62h-8.22zM85.84 70.75h41.13v2.62H85.84zM77.14 91.81h60.32v2.62H77.14zM77.14 102.3h60.32v2.62H77.14zM77.14 112.79h60.32v2.62H77.14zM77.14 123.11h60.32v2.62H77.14z"/><path class="cls-2 cls-8" d="M132.49 157.34A10.49 10.49 0 1 1 122 146.85a10.49 10.49 0 0 1 10.49 10.49"/><path class="cls-7" d="M126.97 156.03h10.49v2.62h-10.49z"/><path class="cls-2 cls-6" d="M211 54.6a31.33 31.33 0 1 0-31.33 31.33A31.33 31.33 0 0 0 211 54.6"/><g class="cls-9"><path class="cls-8" d="M176.12 71.78l3.51 14.15h-18.28l.36-11.21 10.54-5.22 3.87 2.28z"/><path class="cls-7" d="M169.92 45.79h.9c2.44 0 8.37-.3 11.87-3l1.25-4c-.05-.28-.66-1.13-3-2a6.42 6.42 0 0 0-2.2-.36 10.1 10.1 0 0 0-7.87 4 6.4 6.4 0 0 0-1 5.38m.9 2.63c-1.19 0-2-.06-2-.06a1.31 1.31 0 0 1-1.12-.86 9.14 9.14 0 0 1 1-8.6 12.69 12.69 0 0 1 10-5.12 9 9 0 0 1 3.1.52c5.51 2 4.7 4.84 4.59 5.16l-1.39 4.45a1.31 1.31 0 0 1-.4.61c-4 3.39-10.38 3.9-13.85 3.9"/><path class="cls-7" d="M185.26 43.3a6.24 6.24 0 0 0 4 2.36 5.48 5.48 0 0 0-.67-3.56 4.05 4.05 0 0 0-2.42-1.59zm4.52 5c-4.54 0-7-3.93-7.09-4.1a1.31 1.31 0 0 1-.13-1.07l1.44-4.52a1.32 1.32 0 0 1 1.41-.91 7.1 7.1 0 0 1 5.35 3c1.88 2.84.87 6.52.83 6.68a1.31 1.31 0 0 1-1.16.95h-.63"/><path class="cls-7" d="M179.63 65.39h-.27c-.34-.07-8.39-1.85-10-7.41a55 55 0 0 1-1.74-10.82 1.31 1.31 0 0 1 2.62-.13 53.39 53.39 0 0 0 1.64 10.23c1 3.58 6.45 5.17 7.74 5.5 1.29-.33 6.71-1.93 7.74-5.5A53.09 53.09 0 0 0 189 47a1.31 1.31 0 0 1 2.62.13 55 55 0 0 1-1.74 10.82c-1.6 5.56-9.65 7.34-10 7.41h-.27"/><path class="cls-7" d="M170 56.45a1.31 1.31 0 0 1-.63-.16c-2.07-1.15-5.25-3.91-4-7a3.18 3.18 0 0 1 4-2.15l-.91 2.46h.05c-.32-.08-.56.32-.7.67-.6 1.46 2.07 3.3 2.82 3.72a1.31 1.31 0 0 1-.64 2.46M189.28 56.45a1.31 1.31 0 0 1-.64-2.46c.75-.42 3.42-2.27 2.82-3.72-.32-.77-.65-.69-.65-.69a1.31 1.31 0 1 1-.91-2.46 3.18 3.18 0 0 1 4 2.15c1.27 3.09-1.9 5.86-4 7a1.31 1.31 0 0 1-.63.16M178.09 74.26a1.31 1.31 0 0 1-.67-.18l-6.59-3.9a1.31 1.31 0 0 1 1.34-2.26l5.31 3.14.41-1-4.46-1.65a1.31 1.31 0 0 1-.85-1.3l.3-5.39a1.31 1.31 0 0 1 2.62.14l-.24 4.43 4.85 1.79a1.31 1.31 0 0 1 .75 1.75l-1.55 3.6a1.31 1.31 0 0 1-.8.73 1.28 1.28 0 0 1-.41.07"/><path class="cls-8" d="M183.15 71.78l-3.52 14.15h18.28l-.35-11.21-10.55-5.22-3.86 2.28z"/><path class="cls-7" d="M181.18 74.26a1.29 1.29 0 0 1-.41-.07 1.31 1.31 0 0 1-.8-.73l-1.55-3.6a1.31 1.31 0 0 1 .75-1.75l4.83-1.79-.24-4.43a1.31 1.31 0 0 1 2.62-.14l.3 5.39a1.31 1.31 0 0 1-.85 1.3l-4.46 1.65.41 1 5.31-3.14a1.31 1.31 0 0 1 1.34 2.26l-6.59 3.9a1.31 1.31 0 0 1-.67.18"/></g><g class="cls-2"><path class="cls-7" d="M179.63 24.58a30 30 0 1 0 30 30 30.05 30.05 0 0 0-30-30m0 62.66a32.64 32.64 0 1 1 32.64-32.64 32.68 32.68 0 0 1-32.64 32.64"/><path class="cls-6" d="M69.41 157.42a26.14 26.14 0 1 0-26.14 26.14 26.14 26.14 0 0 0 26.14-26.14"/></g><g class="cls-10"><path class="cls-11" d="M40.17 171.08l3.1 12.48H27.14l.31-9.88 9.31-4.62 3.41 2.02z"/><path class="cls-7" d="M35.51 150.63c-1 0-1.69-.05-1.78-.06a1.31 1.31 0 0 1 .21-2.61c.08 0 7.8.59 11.88-2.57l1.08-3.46c-.08-.24-.66-.92-2.51-1.59-2.62-1-6.66-.64-8.63 1.54a1.31 1.31 0 0 1-1.95-1.76c2.74-3 8-3.52 11.47-2.25 5 1.82 4.25 4.46 4.14 4.75l-1.22 3.93a1.31 1.31 0 0 1-.4.61c-3.58 3.05-9.38 3.48-12.3 3.48"/><path class="cls-7" d="M48.72 144.93a7.3 7.3 0 0 1 2.71 1 3.11 3.11 0 0 0-2.32-2.23zm4 5.59a1.31 1.31 0 0 1-1.17-.73 4.35 4.35 0 0 0-4.07-2.34h-.33a1.32 1.32 0 0 1-1.4-1.69l1.25-4a1.31 1.31 0 0 1 1.41-.91 6.4 6.4 0 0 1 4.83 2.68c1.7 2.56.79 5.88.75 6a1.31 1.31 0 0 1-1.14.95z"/><path class="cls-7" d="M43.27 165.59H43c-.3-.06-7.49-1.65-8.93-6.64a48.75 48.75 0 0 1-1.54-9.58 1.31 1.31 0 1 1 2.62-.13 46.89 46.89 0 0 0 1.44 9c.79 2.75 4.86 4.29 6.68 4.74 1.82-.46 5.9-2 6.69-4.74a46.89 46.89 0 0 0 1.44-9 1.31 1.31 0 0 1 2.62.13 48.75 48.75 0 0 1-1.54 9.58c-1.44 5-8.62 6.58-8.93 6.64h-.27"/><path class="cls-7" d="M34.79 157.71a1.31 1.31 0 0 1-.63-.16c-1.88-1-4.74-3.55-3.58-6.38a3 3 0 0 1 3.71-2l-.9 2.46h.06c-.2 0-.37.34-.44.5-.48 1.17 1.82 2.76 2.42 3.09a1.31 1.31 0 0 1-.64 2.46M51.78 157.71a1.31 1.31 0 0 1-.64-2.46c.94-.52 2.85-2 2.42-3.09-.19-.45-.37-.52-.37-.52a1.31 1.31 0 1 1-.91-2.46 3 3 0 0 1 3.71 2c1.16 2.83-1.7 5.34-3.58 6.38a1.31 1.31 0 0 1-.63.16M38.49 168.56l2.8 1.66.23-.54zm3.42 4.86a1.31 1.31 0 0 1-.67-.18l-5.82-3.44a1.31 1.31 0 1 1 1.34-2.26l.3.18a1.3 1.3 0 0 1-.18-.73l.26-4.76a1.31 1.31 0 0 1 2.62.14l-.21 3.79 4.17 1.54a1.31 1.31 0 0 1 .75 1.75l-1.37 3.18a1.31 1.31 0 0 1-.8.73 1.28 1.28 0 0 1-.41.06"/><path class="cls-11" d="M46.37 171.08l-3.1 12.48H59.4l-.31-9.88-9.31-4.62-3.41 2.02z"/><path class="cls-7" d="M45 169.69l.23.54 2.8-1.66zm-.38 3.74a1.28 1.28 0 0 1-.41-.06 1.31 1.31 0 0 1-.8-.73l-1.36-3.18a1.31 1.31 0 0 1 .75-1.75l4.2-1.55-.21-3.79a1.31 1.31 0 1 1 2.62-.14l.26 4.76a1.31 1.31 0 0 1-.18.73l.3-.18a1.31 1.31 0 1 1 1.34 2.26l-5.82 3.44a1.31 1.31 0 0 1-.67.18M38.27 167h-8.09a1.31 1.31 0 0 1-1.23-.85c0-.1-.88-2.41-1-7.72-.21-8.15 1.82-14.37 6.05-18.49a1.31 1.31 0 1 1 1.83 1.88c-3.68 3.59-5.45 9.15-5.26 16.54a31.92 31.92 0 0 0 .63 6h7.08a1.31 1.31 0 1 1 0 2.62"/><path class="cls-7" d="M53.92 167h-5.08a1.31 1.31 0 1 1 0-2.62h4.06a21.39 21.39 0 0 0 .31-3.31 18.44 18.44 0 0 0-.66-5.72 1.31 1.31 0 0 1 2.51-.75 21 21 0 0 1 .76 6.53 16.8 16.8 0 0 1-.67 5 1.31 1.31 0 0 1-1.23.85"/></g><g class="cls-2"><path class="cls-7" d="M43.27 132.6a24.83 24.83 0 1 0 24.83 24.83 24.86 24.86 0 0 0-24.83-24.83m0 52.28a27.45 27.45 0 1 1 27.45-27.45 27.48 27.48 0 0 1-27.45 27.45M11.8 95.55a9.18 9.18 0 1 0 9.2 9.18 9.19 9.19 0 0 0-9.18-9.18m0 21a11.8 11.8 0 1 1 11.8-11.8 11.81 11.81 0 0 1-11.8 11.8M27.54 63.81a3.93 3.93 0 1 0 3.93 3.93 3.94 3.94 0 0 0-3.93-3.93m0 10.49a6.56 6.56 0 1 1 6.56-6.56 6.56 6.56 0 0 1-6.56 6.56M200.61 106.21a9.18 9.18 0 1 0 9.18 9.18 9.19 9.19 0 0 0-9.18-9.18m0 21a11.8 11.8 0 1 1 11.8-11.8 11.81 11.81 0 0 1-11.8 11.8M184.88 148.16a3.93 3.93 0 1 0 3.93 3.93 3.94 3.94 0 0 0-3.93-3.93m0 10.49a6.56 6.56 0 1 1 6.56-6.56 6.56 6.56 0 0 1-6.56 6.56"/></g><path class="cls-7" transform="rotate(-29.52 22.685 124.886)" d="M21.36 112.47h2.62v24.81h-2.62z"/><path class="cls-7" transform="rotate(-58.94 18.392 83.284)" d="M5.61 81.98h25.58v2.62H5.61z"/><path class="cls-7" transform="rotate(-20.73 195.579 94.252)" d="M194.27 82.85h2.62v22.83h-2.62z"/><path class="cls-7" transform="rotate(-63.43 192.319 136.369)" d="M180.17 135.06h24.34v2.62h-24.34z"/></g></g></svg>