<svg xmlns="http://www.w3.org/2000/svg" viewBox="0 0 47.45 47.31"><defs><style>.cls-1{fill:none}.cls-2{clip-path:url(#clip-path)}.cls-3{fill:#57cccc}.cls-4{fill:#30241c}</style><clipPath id="clip-path"><path class="cls-1" d="M0 0h47.45v47.31H0z"/></clipPath></defs><title>plus</title><g id="Слой_2" data-name="Слой 2"><g id="Layer_3" data-name="Layer 3"><g class="cls-2"><path class="cls-3" d="M41.45 23.66A17.72 17.72 0 1 1 23.73 5.93a17.72 17.72 0 0 1 17.72 17.73"/><path class="cls-4" d="M23.35 0h.42a.87.87 0 0 1 0 1.73h-.44a.87.87 0 0 1 0-1.73m0 45.58h.42a.87.87 0 0 1 0 1.73h-.44a.87.87 0 0 1 0-1.73m7.48-1.12a.86.86 0 0 1 .27 1.69l-.42.13a.87.87 0 1 1-.51-1.66l.39-.12a.88.88 0 0 1 .27 0m-14.53-.11a.89.89 0 0 1 .28 0l.39.13a.87.87 0 0 1-.53 1.65L16 46a.86.86 0 0 1 .28-1.68m20.91-3.12a.87.87 0 0 1 .51 1.56l-.35.25a.86.86 0 0 1-1-1.41l.33-.24a.86.86 0 0 1 .51-.17M10 41a.86.86 0 0 1 .52.17l.33.24a.87.87 0 1 1-1 1.4l-.35-.26A.86.86 0 0 1 10 41m32.25-4.86a.86.86 0 0 1 .51.16.86.86 0 0 1 .19 1.21l-.26.35a.87.87 0 1 1-1.38-1l.24-.33a.86.86 0 0 1 .7-.36M5 35.86a.86.86 0 0 1 .71.37l.24.33a.87.87 0 1 1-1.4 1l-.25-.35A.87.87 0 0 1 4.52 36a.86.86 0 0 1 .5-.16m40.47-6.1a.85.85 0 0 1 .27 0 .86.86 0 0 1 .56 1.09l-.14.42a.87.87 0 0 1-1.64-.56l.13-.39a.87.87 0 0 1 .82-.6m-43.62-.26a.86.86 0 0 1 .83.61l.12.39a.87.87 0 0 1-1.64.56L1 30.56a.86.86 0 0 1 .58-1.08.85.85 0 0 1 .25 0m44.72-6.73a.86.86 0 0 1 .87.85v.41a.87.87 0 0 1-.87.85.86.86 0 0 1-.85-.88v-.38a.87.87 0 0 1 .87-.88m-45.7-.36a.87.87 0 0 1 .85.88V23.65a.86.86 0 1 1-1.73 0v-.07-.37a.87.87 0 0 1 .87-.85m44.61-6.73a.87.87 0 0 1 .82.6l.13.42a.87.87 0 1 1-1.66.51l-.12-.39a.87.87 0 0 1 .55-1.09.9.9 0 0 1 .27 0m-43.37-.36a.85.85 0 0 1 .28 0 .86.86 0 0 1 .53 1.1l-.13.38a.87.87 0 1 1-1.65-.53l.14-.42a.86.86 0 0 1 .82-.58m40.13-6a.86.86 0 0 1 .7.36l.26.36a.87.87 0 0 1-1.42 1l-.24-.33a.86.86 0 0 1 .7-1.37M5.44 9a.87.87 0 0 1 .69 1.38l-.24.33a.87.87 0 0 1-1.4-1l.26-.35A.87.87 0 0 1 5.44 9m31.72-4.78a.86.86 0 0 1 .51.17l.35.26A.87.87 0 1 1 37 6l-.33-.24a.87.87 0 0 1 .51-1.56M10.57 4a.87.87 0 0 1 .5 1.57l-.33.24a.86.86 0 1 1-1-1.39l.36-.26a.86.86 0 0 1 .5-.16m20.19-3a.88.88 0 0 1 .27 0l.42.14a.87.87 0 0 1-.57 1.63l-.38-.13A.87.87 0 0 1 30.79 1M17 .87a.87.87 0 0 1 .25 1.69l-.39.12A.87.87 0 0 1 16.31 1l.42-.13a.9.9 0 0 1 .25 0"/></g><path class="cls-4" d="M22.68 11.96h2.1v23.39h-2.1z"/><path class="cls-4" d="M12.03 22.6h23.39v2.1H12.03z"/></g></g></svg>